<svg width="840" height="83" viewBox="0 0 840 83" fill="none" xmlns="http://www.w3.org/2000/svg">
<path d="M807.513 40.7248L822.588 80.5498H794.463L784.901 52.0873H776.238L770.501 80.5498H743.951L759.701 1.7998H786.251L780.401 31.1623H787.151L809.651 1.7998H839.126L807.513 40.7248Z" fill="white"/>
<path d="M667.526 1.7998H693.626L685.188 42.7498L720.401 1.7998H745.713L729.963 80.5498H703.863L712.413 39.7123L677.201 80.5498H651.776L667.526 1.7998Z" fill="white"/>
<path d="M611.166 82.35C603.141 82.35 596.053 80.8875 589.903 77.9625C583.828 74.9625 579.103 70.8 575.728 65.475C572.428 60.15 570.778 54.0375 570.778 47.1375C570.778 37.9875 572.878 29.85 577.078 22.725C581.353 15.6 587.241 10.05 594.741 6.075C602.316 2.025 610.903 0 620.503 0C628.078 0 634.791 1.3875 640.641 4.1625C646.491 6.8625 650.841 10.725 653.691 15.75L634.566 30.7125C631.041 24.5625 625.791 21.4875 618.816 21.4875C614.691 21.4875 611.016 22.5 607.791 24.525C604.566 26.55 602.053 29.4 600.253 33.075C598.453 36.675 597.553 40.8 597.553 45.45C597.553 50.1 599.016 53.85 601.941 56.7C604.941 59.475 608.878 60.8625 613.753 60.8625C620.428 60.8625 626.278 57.825 631.303 51.75L646.941 66.7125C642.366 72.3375 637.153 76.35 631.303 78.75C625.528 81.15 618.816 82.35 611.166 82.35Z" fill="white"/>
<path d="M528.329 82.35C520.304 82.35 513.216 80.8875 507.066 77.9625C500.991 74.9625 496.266 70.8 492.891 65.475C489.591 60.15 487.941 54.0375 487.941 47.1375C487.941 37.9875 490.041 29.85 494.241 22.725C498.516 15.6 504.404 10.05 511.904 6.075C519.479 2.025 528.066 0 537.666 0C545.241 0 551.954 1.3875 557.804 4.1625C563.654 6.8625 568.004 10.725 570.854 15.75L551.729 30.7125C548.204 24.5625 542.954 21.4875 535.979 21.4875C531.854 21.4875 528.179 22.5 524.954 24.525C521.729 26.55 519.216 29.4 517.416 33.075C515.616 36.675 514.716 40.8 514.716 45.45C514.716 50.1 516.179 53.85 519.104 56.7C522.104 59.475 526.041 60.8625 530.916 60.8625C537.591 60.8625 543.441 57.825 548.466 51.75L564.104 66.7125C559.529 72.3375 554.316 76.35 548.466 78.75C542.691 81.15 535.979 82.35 528.329 82.35Z" fill="white"/>
<path d="M449.259 66.8248H419.221L411.346 80.5498H383.334L433.509 1.7998H459.609L478.284 80.5498H451.846L449.259 66.8248ZM445.546 47.6998L441.721 27.5623L430.134 47.6998H445.546Z" fill="white"/>
<path d="M391.812 1.7998L376.062 80.5498H349.962L361.549 22.3873H343.662L340.174 37.7998C337.624 49.1998 334.849 58.0498 331.849 64.3498C328.849 70.6498 325.212 75.1873 320.937 77.9623C316.737 80.6623 311.337 82.0123 304.737 82.0123C300.612 82.0123 296.974 81.5248 293.824 80.5498L299.449 59.2873C300.349 59.5123 301.287 59.6248 302.262 59.6248C304.662 59.6248 306.724 58.7623 308.449 57.0373C310.249 55.3123 311.899 52.4998 313.399 48.5998C314.974 44.6998 316.549 39.3373 318.124 32.5123L325.324 1.7998H391.812Z" fill="white"/>
<path d="M275.775 40.7248L290.85 80.5498H262.725L253.163 52.0873H244.5L238.763 80.5498H212.213L227.963 1.7998H254.513L248.663 31.1623H255.413L277.913 1.7998H307.388L275.775 40.7248Z" fill="white"/>
<path d="M128.392 41.0498H212.213L210.033 55.0498H126.213L128.392 41.0498Z" fill="white"/>
<path d="M88.2 0C95.775 0 102.45 1.5 108.225 4.5C114.075 7.5 118.575 11.7 121.725 17.1C124.95 22.425 126.563 28.6125 126.563 35.6625C126.563 44.1375 124.275 51.9375 119.7 59.0625C115.2 66.1875 109.088 71.85 101.363 76.05C93.6375 80.25 85.2375 82.35 76.1625 82.35C69.1875 82.35 62.9625 81.075 57.4875 78.525C52.0125 75.975 47.5875 72.375 44.2125 67.725C40.8375 63.075 38.775 57.675 38.025 51.525H31.95L26.1 80.55H0L15.75 1.8H41.85L36.225 29.7H41.2875C43.7625 23.925 47.325 18.7875 51.975 14.2875C56.7 9.7875 62.175 6.3 68.4 3.825C74.7 1.275 81.3 0 88.2 0ZM78.525 60.8625C82.275 60.8625 85.7625 59.8125 88.9875 57.7125C92.2125 55.5375 94.7625 52.6125 96.6375 48.9375C98.5125 45.2625 99.45 41.2875 99.45 37.0125C99.45 32.2125 98.2125 28.425 95.7375 25.65C93.3375 22.875 90.0375 21.4875 85.8375 21.4875C82.0875 21.4875 78.6 22.575 75.375 24.75C72.15 26.85 69.6 29.7375 67.725 33.4125C65.85 37.0125 64.9125 40.95 64.9125 45.225C64.9125 50.1 66.1125 53.925 68.5125 56.7C70.9875 59.475 74.325 60.8625 78.525 60.8625Z" fill="#FCC600"/>
</svg>
