<svg width="262" height="26" viewBox="0 0 262 26" fill="none" xmlns="http://www.w3.org/2000/svg">
<path d="M244.986 1.06836L243.288 9.74316L243.171 10.3389H246.122L246.272 10.1396L253.104 1.06836H260.962L251.8 12.5459L251.624 12.7676L251.723 13.0322L256.148 24.9316H248.503L245.649 16.2881L245.536 15.9453H242.076L241.996 16.3486L240.296 24.9316H233.076L237.768 1.06836H244.986Z" stroke="white"/>
<path d="M216.243 1.06824L213.746 13.3983L214.618 13.8202L225.394 1.06824H232.408L227.718 24.9315H220.645L223.174 12.6385L222.303 12.2147L211.526 24.9315H204.477L209.168 1.06824H216.243Z" stroke="white"/>
<path d="M194.166 0.5C196.454 0.500001 198.46 0.926247 200.197 1.76465L200.202 1.7666C201.789 2.51182 202.983 3.54257 203.81 4.85352L198.657 8.95508C197.483 7.18984 195.799 6.28423 193.643 6.28418C192.275 6.28418 191.039 6.62754 189.952 7.32227C188.868 8.01509 188.029 8.98698 187.434 10.2217C186.836 11.437 186.545 12.8172 186.545 14.3496C186.545 15.9295 187.038 17.249 188.055 18.2568L188.063 18.2656C189.104 19.2447 190.456 19.7158 192.071 19.7158C194.162 19.7158 195.99 18.8072 197.549 17.0684L201.69 21.0996C200.387 22.6358 198.931 23.7305 197.324 24.4014L197.322 24.4023C195.604 25.129 193.59 25.5 191.269 25.5C188.993 25.5 186.985 25.1042 185.235 24.3252L184.89 24.165C183.084 23.2566 181.692 22.0035 180.697 20.4072C179.728 18.8137 179.237 16.9774 179.237 14.8828C179.237 12.0719 179.87 9.58994 181.124 7.4248C182.403 5.25648 184.163 3.57006 186.41 2.3584L186.411 2.35742C188.68 1.12299 191.261 0.5 194.166 0.5Z" stroke="white"/>
<path d="M168.463 0.5C170.75 0.500001 172.757 0.926247 174.494 1.76465L174.499 1.7666C176.086 2.51182 177.28 3.54257 178.106 4.85352L172.954 8.95508C171.78 7.18984 170.096 6.28423 167.939 6.28418C166.572 6.28418 165.336 6.62754 164.249 7.32227C163.165 8.01509 162.326 8.98698 161.73 10.2217C161.133 11.437 160.842 12.8172 160.842 14.3496C160.842 15.9295 161.335 17.249 162.352 18.2568L162.36 18.2656C163.401 19.2447 164.753 19.7158 166.368 19.7158C168.459 19.7158 170.287 18.8072 171.846 17.0684L175.987 21.0996C174.684 22.6358 173.228 23.7305 171.621 24.4014L171.619 24.4023C169.901 25.129 167.887 25.5 165.565 25.5C163.289 25.5 161.282 25.1042 159.532 24.3252L159.187 24.165C157.381 23.2566 155.988 22.0035 154.994 20.4072C154.025 18.8137 153.534 16.9774 153.534 14.8828C153.534 12.0719 154.167 9.58994 155.421 7.4248C156.7 5.25648 158.46 3.57006 160.707 2.3584L160.708 2.35742C162.977 1.12299 165.558 0.5 168.463 0.5Z" stroke="white"/>
<path d="M145.313 1.06824L150.876 24.9315H143.718L142.991 21.0067L142.915 20.5985H132.887L132.743 20.8524L130.443 24.9315H122.947L137.89 1.06824H145.313ZM139.726 8.45593L136.13 14.8143L135.708 15.5604H141.949L141.839 14.9686L140.652 8.61023L140.4 7.26257L139.726 8.45593Z" stroke="white"/>
<path d="M124.066 1.06836L119.376 24.9316H112.296L115.775 7.16406L115.892 6.56836H109.333L109.246 6.95996L108.164 11.8262V11.8271C107.376 15.4108 106.524 18.1638 105.616 20.1045C104.71 22.0407 103.633 23.3878 102.407 24.1973C101.208 24.9813 99.6359 25.3936 97.6562 25.3936C96.6154 25.3935 95.691 25.2866 94.8779 25.082L96.3828 19.2949C96.5489 19.3152 96.7177 19.3252 96.8887 19.3252C97.7712 19.3252 98.5385 18.9959 99.165 18.3584L99.1641 18.3574C99.7956 17.738 100.338 16.7749 100.812 15.5215L100.811 15.5205C101.312 14.2556 101.808 12.5378 102.298 10.377L104.442 1.06836H124.066Z" stroke="white"/>
<path d="M81.4658 1.06836L79.7676 9.74316L79.6504 10.3389H82.6016L82.752 10.1396L89.583 1.06836H97.4414L88.2793 12.5459L88.1035 12.7676L88.2021 13.0322L92.6279 24.9316H84.9824L82.1289 16.2881L82.0156 15.9453H78.5557L78.4756 16.3486L76.7754 24.9316H69.5557L74.2471 1.06836H81.4658Z" stroke="white"/>
<path d="M66.8574 9.35608L66.2578 17.1959H41.2529L41.8525 9.35608H66.8574Z" stroke="white"/>
<path d="M27.3672 0.5C29.649 0.500057 31.6376 0.959894 33.3467 1.86328L33.3486 1.86426C35.0828 2.76915 36.4071 4.02908 37.335 5.64746L37.3389 5.6543C38.2874 7.24799 38.7695 9.11129 38.7695 11.2598C38.7695 13.8416 38.0865 16.2118 36.7178 18.3809L36.7158 18.3838C35.3663 20.5581 33.5337 22.2871 31.209 23.5732C28.8883 24.8571 26.3654 25.5 23.6318 25.5C21.5307 25.5 19.6741 25.1096 18.0518 24.3408C16.4266 23.5706 15.1206 22.4875 14.125 21.0918C13.1307 19.6977 12.5185 18.0735 12.2949 16.208L12.2422 15.7676H9.50293L9.42285 16.1709L7.6875 24.9316H0.607422L5.29883 1.06836H12.377L10.749 9.28027L10.6309 9.87695H13.1426L13.2715 9.57129C14.0127 7.81148 15.0792 6.24499 16.4746 4.87012C17.8935 3.49512 19.5381 2.42867 21.4111 1.6709L21.4141 1.66992C23.3075 0.890134 25.2909 0.5 27.3672 0.5ZM26.6338 6.28418C25.4441 6.28418 24.3329 6.61549 23.3086 7.26758L23.1113 7.39746C22.0331 8.11189 21.1858 9.0912 20.5684 10.3213C19.9485 11.5323 19.6407 12.8542 19.6406 14.2783C19.6406 15.8956 20.0328 17.2324 20.877 18.2256L20.8818 18.2314C21.7566 19.2294 22.9371 19.7158 24.3652 19.7158C25.6301 19.7157 26.808 19.3531 27.8877 18.6377L27.8936 18.6338C28.9688 17.8959 29.8147 16.9052 30.4316 15.6748C31.0497 14.4422 31.3574 13.1099 31.3574 11.6855C31.3574 10.0891 30.9521 8.7657 30.0859 7.77441H30.0869C29.2339 6.77086 28.0617 6.28419 26.6338 6.28418Z" stroke="white"/>
</svg>
