<svg width="537" height="597" viewBox="0 0 537 597" fill="none" xmlns="http://www.w3.org/2000/svg">
<rect width="537" height="597" fill="#1E1E1E"/>
<path d="M160.971 358.176H157.435V366.2H153.953V347.16H157.435V355.13H161.08L166.547 347.16H170.3L163.8 356.381L170.545 366.2H166.547L160.971 358.176ZM178.163 351.512C180.303 351.512 181.935 352.029 183.059 353.063C184.202 354.078 184.773 355.619 184.773 357.687V366.2H181.563V364.432C181.146 365.067 180.548 365.556 179.768 365.901C179.007 366.227 178.082 366.391 176.994 366.391C175.906 366.391 174.954 366.209 174.138 365.847C173.322 365.466 172.687 364.949 172.234 364.296C171.799 363.625 171.581 362.873 171.581 362.039C171.581 360.733 172.062 359.69 173.023 358.911C174.002 358.113 175.534 357.714 177.619 357.714H181.373V357.496C181.373 356.481 181.065 355.701 180.448 355.157C179.85 354.613 178.952 354.341 177.755 354.341C176.939 354.341 176.132 354.468 175.335 354.722C174.555 354.976 173.893 355.329 173.349 355.783L172.016 353.307C172.778 352.727 173.694 352.283 174.763 351.975C175.833 351.666 176.967 351.512 178.163 351.512ZM177.701 363.915C178.553 363.915 179.306 363.725 179.959 363.344C180.63 362.945 181.101 362.383 181.373 361.658V359.971H177.864C175.906 359.971 174.927 360.615 174.927 361.903C174.927 362.519 175.171 363.009 175.661 363.371C176.151 363.734 176.831 363.915 177.701 363.915ZM201.302 351.675V366.2H197.902V360.57C196.506 361.241 195.046 361.576 193.523 361.576C191.655 361.576 190.222 361.15 189.225 360.298C188.228 359.427 187.729 358.104 187.729 356.327V351.675H191.129V356.109C191.129 357.034 191.401 357.723 191.945 358.176C192.489 358.63 193.26 358.856 194.257 358.856C195.526 358.856 196.741 358.584 197.902 358.04V351.675H201.302ZM212.348 366.391C210.879 366.391 209.555 366.073 208.376 365.439C207.198 364.804 206.273 363.924 205.602 362.8C204.949 361.658 204.623 360.37 204.623 358.938C204.623 357.505 204.949 356.227 205.602 355.103C206.273 353.978 207.198 353.099 208.376 352.464C209.555 351.83 210.879 351.512 212.348 351.512C213.835 351.512 215.167 351.83 216.346 352.464C217.525 353.099 218.44 353.978 219.093 355.103C219.764 356.227 220.1 357.505 220.1 358.938C220.1 360.37 219.764 361.658 219.093 362.8C218.44 363.924 217.525 364.804 216.346 365.439C215.167 366.073 213.835 366.391 212.348 366.391ZM212.348 363.48C213.599 363.48 214.632 363.063 215.448 362.229C216.264 361.395 216.672 360.298 216.672 358.938C216.672 357.578 216.264 356.481 215.448 355.647C214.632 354.812 213.599 354.395 212.348 354.395C211.096 354.395 210.063 354.812 209.247 355.647C208.449 356.481 208.05 357.578 208.05 358.938C208.05 360.298 208.449 361.395 209.247 362.229C210.063 363.063 211.096 363.48 212.348 363.48ZM233.985 358.639C235.78 359.183 236.678 360.343 236.678 362.12C236.678 363.426 236.188 364.432 235.209 365.139C234.23 365.847 232.779 366.2 230.857 366.2H223.458V351.675H230.558C232.335 351.675 233.722 352.002 234.719 352.655C235.717 353.307 236.215 354.232 236.215 355.429C236.215 356.172 236.016 356.816 235.617 357.36C235.236 357.904 234.692 358.33 233.985 358.639ZM226.695 357.741H230.258C232.017 357.741 232.897 357.134 232.897 355.919C232.897 354.74 232.017 354.151 230.258 354.151H226.695V357.741ZM230.585 363.725C232.453 363.725 233.386 363.118 233.386 361.903C233.386 361.268 233.169 360.796 232.734 360.488C232.298 360.162 231.618 359.999 230.694 359.999H226.695V363.725H230.585ZM245.712 351.512C247.852 351.512 249.484 352.029 250.608 353.063C251.75 354.078 252.321 355.619 252.321 357.687V366.2H249.112V364.432C248.695 365.067 248.096 365.556 247.317 365.901C246.555 366.227 245.63 366.391 244.542 366.391C243.454 366.391 242.502 366.209 241.686 365.847C240.87 365.466 240.236 364.949 239.782 364.296C239.347 363.625 239.129 362.873 239.129 362.039C239.129 360.733 239.61 359.69 240.571 358.911C241.55 358.113 243.083 357.714 245.168 357.714H248.921V357.496C248.921 356.481 248.613 355.701 247.997 355.157C247.398 354.613 246.501 354.341 245.304 354.341C244.488 354.341 243.681 354.468 242.883 354.722C242.103 354.976 241.441 355.329 240.897 355.783L239.565 353.307C240.326 352.727 241.242 352.283 242.312 351.975C243.382 351.666 244.515 351.512 245.712 351.512ZM245.249 363.915C246.102 363.915 246.854 363.725 247.507 363.344C248.178 362.945 248.649 362.383 248.921 361.658V359.971H245.413C243.454 359.971 242.475 360.615 242.475 361.903C242.475 362.519 242.72 363.009 243.209 363.371C243.699 363.734 244.379 363.915 245.249 363.915ZM268.796 351.675V366.2H265.75V361.821H261.914L258.95 366.2H255.305L258.732 361.359C257.68 360.996 256.873 360.443 256.311 359.699C255.767 358.938 255.495 358.004 255.495 356.898C255.495 355.23 256.084 353.942 257.263 353.035C258.442 352.129 260.065 351.675 262.132 351.675H268.796ZM262.241 354.531C260.047 354.531 258.95 355.356 258.95 357.007C258.95 358.639 260.01 359.455 262.132 359.455H265.75V354.531H262.241ZM295.167 366.2V356.571L290.271 364.677H288.802L283.987 356.544V366.2H280.887V351.675H284.45L289.618 360.76L295.031 351.675H298.213L298.24 366.2H295.167ZM316.509 351.675L309.709 367.37C309.075 368.947 308.304 370.054 307.397 370.688C306.491 371.341 305.394 371.667 304.106 371.667C303.381 371.667 302.665 371.55 301.957 371.314C301.25 371.078 300.67 370.752 300.217 370.335L301.577 367.832C301.903 368.14 302.284 368.385 302.719 368.567C303.172 368.748 303.626 368.839 304.079 368.839C304.677 368.839 305.167 368.684 305.548 368.376C305.947 368.068 306.309 367.551 306.636 366.826L306.881 366.255L300.543 351.675H304.079L308.649 362.419L313.245 351.675H316.509ZM327.202 358.639C328.109 358.892 328.807 359.31 329.297 359.89C329.805 360.452 330.058 361.132 330.058 361.93C330.058 362.818 329.759 363.607 329.161 364.296C328.562 364.967 327.737 365.493 326.686 365.874C325.634 366.255 324.437 366.445 323.095 366.445C321.971 366.445 320.874 366.318 319.804 366.064C318.734 365.792 317.764 365.411 316.894 364.922L317.873 362.392C318.58 362.791 319.378 363.099 320.266 363.317C321.155 363.535 322.043 363.643 322.932 363.643C324.074 363.643 324.963 363.471 325.598 363.127C326.25 362.764 326.577 362.274 326.577 361.658C326.577 361.096 326.323 360.66 325.815 360.352C325.326 360.044 324.627 359.89 323.721 359.89H320.892V357.605H323.449C324.301 357.605 324.963 357.46 325.434 357.17C325.924 356.88 326.169 356.472 326.169 355.946C326.169 355.42 325.879 355.003 325.298 354.695C324.718 354.386 323.92 354.232 322.905 354.232C321.454 354.232 319.922 354.586 318.308 355.293L317.438 352.791C319.342 351.902 321.264 351.458 323.204 351.458C324.437 351.458 325.543 351.63 326.522 351.975C327.502 352.301 328.263 352.772 328.807 353.389C329.369 353.987 329.65 354.676 329.65 355.456C329.65 356.163 329.433 356.798 328.998 357.36C328.562 357.904 327.964 358.33 327.202 358.639ZM340.659 356.463C342.508 356.463 343.923 356.88 344.902 357.714C345.881 358.548 346.371 359.727 346.371 361.25C346.371 362.846 345.827 364.079 344.739 364.949C343.669 365.819 342.145 366.246 340.169 366.227L333.587 366.2V351.675H336.987V356.435L340.659 356.463ZM348.247 351.675H351.647V366.2H348.247V351.675ZM339.87 363.725C340.867 363.743 341.629 363.535 342.155 363.099C342.68 362.664 342.943 362.03 342.943 361.195C342.943 360.379 342.689 359.781 342.182 359.4C341.674 359.019 340.903 358.82 339.87 358.802L336.987 358.775V363.698L339.87 363.725ZM362.256 360.379H359.618V366.2H356.218V351.675H359.618V357.551H362.338L366.635 351.675H370.28L365.003 358.666L370.634 366.2H366.635L362.256 360.379ZM378.179 351.512C380.319 351.512 381.951 352.029 383.075 353.063C384.217 354.078 384.789 355.619 384.789 357.687V366.2H381.579V364.432C381.162 365.067 380.564 365.556 379.784 365.901C379.022 366.227 378.097 366.391 377.009 366.391C375.921 366.391 374.969 366.209 374.153 365.847C373.337 365.466 372.703 364.949 372.249 364.296C371.814 363.625 371.597 362.873 371.597 362.039C371.597 360.733 372.077 359.69 373.038 358.911C374.017 358.113 375.55 357.714 377.635 357.714H381.389V357.496C381.389 356.481 381.08 355.701 380.464 355.157C379.865 354.613 378.968 354.341 377.771 354.341C376.955 354.341 376.148 354.468 375.35 354.722C374.571 354.976 373.909 355.329 373.365 355.783L372.032 353.307C372.793 352.727 373.709 352.283 374.779 351.975C375.849 351.666 376.982 351.512 378.179 351.512ZM377.717 363.915C378.569 363.915 379.321 363.725 379.974 363.344C380.645 362.945 381.117 362.383 381.389 361.658V359.971H377.88C375.921 359.971 374.942 360.615 374.942 361.903C374.942 362.519 375.187 363.009 375.677 363.371C376.166 363.734 376.846 363.915 377.717 363.915ZM236.455 391.639C238.25 392.183 239.148 393.343 239.148 395.12C239.148 396.426 238.658 397.432 237.679 398.139C236.7 398.847 235.249 399.2 233.327 399.2H225.929V384.675H233.028C234.805 384.675 236.192 385.002 237.19 385.655C238.187 386.307 238.686 387.232 238.686 388.429C238.686 389.172 238.486 389.816 238.087 390.36C237.706 390.904 237.162 391.33 236.455 391.639ZM229.166 390.741H232.729C234.488 390.741 235.367 390.134 235.367 388.919C235.367 387.74 234.488 387.151 232.729 387.151H229.166V390.741ZM233.055 396.725C234.923 396.725 235.857 396.118 235.857 394.903C235.857 394.268 235.639 393.796 235.204 393.488C234.769 393.162 234.089 392.999 233.164 392.999H229.166V396.725H233.055ZM258.963 391.639C259.87 391.892 260.568 392.31 261.058 392.89C261.565 393.452 261.819 394.132 261.819 394.93C261.819 395.818 261.52 396.607 260.922 397.296C260.323 397.967 259.498 398.493 258.447 398.874C257.395 399.255 256.198 399.445 254.856 399.445C253.732 399.445 252.635 399.318 251.565 399.064C250.495 398.792 249.525 398.411 248.655 397.922L249.634 395.392C250.341 395.791 251.139 396.099 252.027 396.317C252.916 396.535 253.804 396.643 254.693 396.643C255.835 396.643 256.724 396.471 257.359 396.127C258.011 395.764 258.338 395.274 258.338 394.658C258.338 394.096 258.084 393.66 257.576 393.352C257.087 393.044 256.388 392.89 255.482 392.89H252.653V390.605H255.21C256.062 390.605 256.724 390.46 257.195 390.17C257.685 389.88 257.93 389.472 257.93 388.946C257.93 388.42 257.64 388.003 257.059 387.695C256.479 387.386 255.681 387.232 254.666 387.232C253.215 387.232 251.683 387.586 250.069 388.293L249.199 385.791C251.103 384.902 253.025 384.458 254.965 384.458C256.198 384.458 257.304 384.63 258.283 384.975C259.263 385.301 260.024 385.772 260.568 386.389C261.13 386.987 261.411 387.676 261.411 388.456C261.411 389.163 261.194 389.798 260.759 390.36C260.323 390.904 259.725 391.33 258.963 391.639ZM270.76 384.512C272.9 384.512 274.532 385.029 275.656 386.063C276.799 387.078 277.37 388.619 277.37 390.687V399.2H274.16V397.432C273.743 398.067 273.145 398.556 272.365 398.901C271.603 399.227 270.679 399.391 269.591 399.391C268.503 399.391 267.551 399.209 266.735 398.847C265.919 398.466 265.284 397.949 264.831 397.296C264.395 396.625 264.178 395.873 264.178 395.039C264.178 393.733 264.658 392.69 265.619 391.911C266.599 391.113 268.131 390.714 270.216 390.714H273.97V390.496C273.97 389.481 273.662 388.701 273.045 388.157C272.447 387.613 271.549 387.341 270.352 387.341C269.536 387.341 268.729 387.468 267.931 387.722C267.152 387.976 266.49 388.329 265.946 388.783L264.613 386.307C265.375 385.727 266.29 385.283 267.36 384.975C268.43 384.666 269.563 384.512 270.76 384.512ZM270.298 396.915C271.15 396.915 271.903 396.725 272.555 396.344C273.226 395.945 273.698 395.383 273.97 394.658V392.971H270.461C268.503 392.971 267.523 393.615 267.523 394.903C267.523 395.519 267.768 396.009 268.258 396.371C268.747 396.734 269.427 396.915 270.298 396.915ZM294.742 384.675V399.2H291.342V387.559H285.902L285.766 390.442C285.675 392.364 285.494 393.978 285.222 395.283C284.968 396.571 284.524 397.595 283.889 398.357C283.273 399.1 282.42 399.472 281.332 399.472C280.825 399.472 280.199 399.372 279.456 399.173L279.619 396.317C279.873 396.371 280.09 396.399 280.272 396.399C280.961 396.399 281.477 396.127 281.822 395.583C282.167 395.02 282.384 394.359 282.475 393.597C282.584 392.817 282.674 391.711 282.747 390.279L282.992 384.675H294.742ZM312.921 392.019C312.921 392.255 312.903 392.591 312.867 393.026H301.47C301.669 394.096 302.186 394.948 303.02 395.583C303.872 396.199 304.924 396.507 306.175 396.507C307.771 396.507 309.086 395.982 310.119 394.93L311.942 397.024C311.289 397.804 310.464 398.393 309.467 398.792C308.469 399.191 307.345 399.391 306.094 399.391C304.498 399.391 303.093 399.073 301.878 398.439C300.663 397.804 299.72 396.924 299.049 395.8C298.396 394.658 298.07 393.37 298.07 391.938C298.07 390.523 298.387 389.254 299.022 388.13C299.675 386.987 300.572 386.099 301.715 385.464C302.857 384.83 304.144 384.512 305.577 384.512C306.991 384.512 308.252 384.83 309.358 385.464C310.482 386.081 311.352 386.96 311.969 388.103C312.604 389.227 312.921 390.532 312.921 392.019ZM305.577 387.232C304.489 387.232 303.564 387.559 302.803 388.211C302.059 388.846 301.606 389.698 301.443 390.768H309.684C309.539 389.716 309.095 388.864 308.351 388.211C307.608 387.559 306.683 387.232 305.577 387.232Z" fill="white"/>
<path d="M242.333 276.867C242.333 286.071 234.871 293.533 225.667 293.533C216.462 293.533 209 286.071 209 276.867C209 267.662 216.462 260.2 225.667 260.2C234.871 260.2 242.333 267.662 242.333 276.867ZM242.333 276.867V206.288C242.333 202.84 244.963 199.961 248.396 199.649L308.396 194.194C312.301 193.839 315.667 196.913 315.667 200.833V270.2M315.667 270.2C315.667 279.405 308.205 286.867 299 286.867C289.795 286.867 282.333 279.405 282.333 270.2C282.333 260.995 289.795 253.533 299 253.533C308.205 253.533 315.667 260.995 315.667 270.2Z" stroke="#FEEFBB" stroke-width="13.3333" stroke-linecap="round" stroke-linejoin="round"/>
</svg>
