<svg width="538" height="597" viewBox="0 0 538 597" fill="none" xmlns="http://www.w3.org/2000/svg">
<rect width="538" height="597" fill="#1E1E1E"/>
<path d="M161.758 366.472C159.817 366.472 158.068 366.055 156.508 365.221C154.949 364.369 153.725 363.199 152.836 361.712C151.948 360.207 151.503 358.53 151.503 356.68C151.503 354.831 151.948 353.162 152.836 351.675C153.725 350.17 154.949 349.001 156.508 348.167C158.068 347.314 159.817 346.888 161.758 346.888C163.698 346.888 165.448 347.314 167.007 348.167C168.567 349.001 169.791 350.161 170.679 351.648C171.568 353.135 172.012 354.812 172.012 356.68C172.012 358.548 171.568 360.225 170.679 361.712C169.791 363.199 168.567 364.369 167.007 365.221C165.448 366.055 163.698 366.472 161.758 366.472ZM161.758 363.371C163.027 363.371 164.169 363.09 165.185 362.528C166.2 361.948 166.998 361.15 167.578 360.135C168.159 359.101 168.449 357.95 168.449 356.68C168.449 355.411 168.159 354.268 167.578 353.253C166.998 352.219 166.2 351.422 165.185 350.859C164.169 350.279 163.027 349.989 161.758 349.989C160.488 349.989 159.346 350.279 158.33 350.859C157.315 351.422 156.517 352.219 155.937 353.253C155.357 354.268 155.066 355.411 155.066 356.68C155.066 357.95 155.357 359.101 155.937 360.135C156.517 361.15 157.315 361.948 158.33 362.528C159.346 363.09 160.488 363.371 161.758 363.371ZM183.401 352.383C184.78 352.383 185.995 352.682 187.046 353.28C188.098 353.86 188.914 354.676 189.494 355.728C190.093 356.78 190.392 357.986 190.392 359.346C190.392 360.742 190.065 361.984 189.413 363.072C188.76 364.142 187.844 364.976 186.665 365.575C185.487 366.173 184.145 366.472 182.64 366.472C180.119 366.472 178.17 365.638 176.792 363.97C175.414 362.302 174.725 359.899 174.725 356.762C174.725 353.842 175.35 351.53 176.601 349.826C177.853 348.121 179.766 346.997 182.341 346.453L189.086 345.011L189.576 348.058L183.456 349.309C181.697 349.672 180.382 350.288 179.512 351.159C178.641 352.029 178.134 353.253 177.989 354.831C178.641 354.051 179.43 353.452 180.355 353.035C181.28 352.6 182.295 352.383 183.401 352.383ZM182.721 363.725C183.973 363.725 184.979 363.326 185.741 362.528C186.52 361.712 186.91 360.679 186.91 359.427C186.91 358.176 186.52 357.17 185.741 356.408C184.979 355.647 183.973 355.266 182.721 355.266C181.452 355.266 180.428 355.647 179.648 356.408C178.868 357.17 178.478 358.176 178.478 359.427C178.478 360.697 178.868 361.73 179.648 362.528C180.446 363.326 181.47 363.725 182.721 363.725ZM215.089 351.675V366.2H193.683V351.675H197.083V363.317H202.713V351.675H206.113V363.317H211.689V351.675H215.089ZM217.184 363.317V369.192H214.001V366.2H211.58V363.317H217.184ZM219.661 351.675H223.061V361.25L231.085 351.675H234.186V366.2H230.786V356.626L222.789 366.2H219.661V351.675ZM250.265 354.559H245.179V366.2H241.779V354.559H236.665V351.675H250.265V354.559ZM265.694 359.019C265.694 359.255 265.676 359.591 265.639 360.026H254.243C254.442 361.096 254.959 361.948 255.793 362.583C256.645 363.199 257.697 363.507 258.948 363.507C260.544 363.507 261.859 362.982 262.892 361.93L264.715 364.024C264.062 364.804 263.237 365.393 262.239 365.792C261.242 366.191 260.118 366.391 258.867 366.391C257.271 366.391 255.866 366.073 254.651 365.439C253.436 364.804 252.493 363.924 251.822 362.8C251.169 361.658 250.843 360.37 250.843 358.938C250.843 357.523 251.16 356.254 251.795 355.13C252.447 353.987 253.345 353.099 254.487 352.464C255.63 351.83 256.917 351.512 258.35 351.512C259.764 351.512 261.024 351.83 262.131 352.464C263.255 353.081 264.125 353.96 264.742 355.103C265.376 356.227 265.694 357.532 265.694 359.019ZM258.35 354.232C257.262 354.232 256.337 354.559 255.575 355.211C254.832 355.846 254.379 356.698 254.215 357.768H262.457C262.312 356.716 261.868 355.864 261.124 355.211C260.381 354.559 259.456 354.232 258.35 354.232ZM282.391 351.675V366.2H278.991V354.559H273.551L273.415 357.442C273.325 359.364 273.143 360.978 272.871 362.283C272.618 363.571 272.173 364.595 271.539 365.357C270.922 366.1 270.07 366.472 268.982 366.472C268.474 366.472 267.848 366.372 267.105 366.173L267.268 363.317C267.522 363.371 267.74 363.399 267.921 363.399C268.61 363.399 269.127 363.127 269.471 362.583C269.816 362.02 270.034 361.359 270.124 360.597C270.233 359.817 270.324 358.711 270.396 357.279L270.641 351.675H282.391ZM294.26 356.463C296.11 356.463 297.524 356.88 298.503 357.714C299.5 358.548 299.999 359.727 299.999 361.25C299.999 362.846 299.455 364.079 298.367 364.949C297.279 365.819 295.747 366.246 293.77 366.227L286.97 366.2V351.675H290.37V356.435L294.26 356.463ZM293.471 363.725C294.468 363.743 295.23 363.535 295.756 363.099C296.282 362.664 296.545 362.03 296.545 361.195C296.545 360.379 296.291 359.781 295.783 359.4C295.275 359.019 294.505 358.82 293.471 358.802L290.37 358.775V363.698L293.471 363.725ZM302.988 351.675H306.388V357.578H313.704V351.675H317.104V366.2H313.704V360.461H306.388V366.2H302.988V351.675ZM328.733 356.463C330.583 356.463 331.997 356.88 332.976 357.714C333.955 358.548 334.445 359.727 334.445 361.25C334.445 362.846 333.901 364.079 332.813 364.949C331.743 365.819 330.22 366.246 328.243 366.227L321.661 366.2V351.675H325.061V356.435L328.733 356.463ZM336.322 351.675H339.722V366.2H336.322V351.675ZM327.944 363.725C328.942 363.743 329.703 363.535 330.229 363.099C330.755 362.664 331.018 362.03 331.018 361.195C331.018 360.379 330.764 359.781 330.256 359.4C329.748 359.019 328.978 358.82 327.944 358.802L325.061 358.775V363.698L327.944 363.725ZM344.292 351.675H347.692V361.25L355.716 351.675H358.817V366.2H355.417V356.626L347.42 366.2H344.292V351.675ZM351.337 349.962C349.868 349.962 348.744 349.626 347.964 348.955C347.203 348.266 346.813 347.269 346.795 345.963H349.052C349.07 346.616 349.27 347.133 349.651 347.514C350.05 347.895 350.603 348.085 351.31 348.085C351.999 348.085 352.543 347.895 352.942 347.514C353.359 347.133 353.576 346.616 353.595 345.963H355.907C355.888 347.269 355.49 348.266 354.71 348.955C353.93 349.626 352.806 349.962 351.337 349.962ZM370.908 351.675H374.308V361.25L382.332 351.675H385.433V366.2H382.033V356.626L374.036 366.2H370.908V351.675ZM180.181 396.317V402.437H176.998V399.2H165.792V402.437H162.637V396.317H163.317C164.241 396.281 164.867 395.691 165.193 394.549C165.538 393.388 165.765 391.756 165.873 389.653L166.064 384.675H178.032V396.317H180.181ZM168.974 389.898C168.902 391.566 168.766 392.926 168.566 393.978C168.367 395.03 168.004 395.809 167.478 396.317H174.632V387.559H169.056L168.974 389.898ZM191.268 384.512C192.683 384.512 193.943 384.82 195.049 385.437C196.173 386.054 197.053 386.924 197.688 388.048C198.322 389.172 198.64 390.469 198.64 391.938C198.64 393.407 198.322 394.712 197.688 395.855C197.053 396.979 196.173 397.849 195.049 398.466C193.943 399.082 192.683 399.391 191.268 399.391C189.31 399.391 187.76 398.738 186.617 397.432V404.477H183.217V384.675H186.454V386.579C187.016 385.89 187.705 385.374 188.521 385.029C189.355 384.684 190.271 384.512 191.268 384.512ZM190.888 396.48C192.139 396.48 193.163 396.063 193.961 395.229C194.777 394.395 195.185 393.298 195.185 391.938C195.185 390.578 194.777 389.481 193.961 388.647C193.163 387.812 192.139 387.395 190.888 387.395C190.072 387.395 189.337 387.586 188.684 387.967C188.032 388.329 187.515 388.855 187.134 389.544C186.753 390.233 186.563 391.031 186.563 391.938C186.563 392.844 186.753 393.642 187.134 394.331C187.515 395.02 188.032 395.555 188.684 395.936C189.337 396.299 190.072 396.48 190.888 396.48ZM215.334 384.675L208.534 400.37C207.899 401.947 207.128 403.054 206.222 403.688C205.315 404.341 204.218 404.667 202.931 404.667C202.205 404.667 201.489 404.55 200.782 404.314C200.075 404.078 199.494 403.752 199.041 403.335L200.401 400.832C200.727 401.14 201.108 401.385 201.543 401.567C201.997 401.748 202.45 401.839 202.903 401.839C203.502 401.839 203.991 401.684 204.372 401.376C204.771 401.068 205.134 400.551 205.46 399.826L205.705 399.255L199.367 384.675H202.903L207.473 395.419L212.07 384.675H215.334ZM230.662 393.379H228.214V399.2H224.842V393.379H222.394L218.858 399.2H214.832L219.592 391.693L215.186 384.675H218.803L222.339 390.551H224.842V384.675H228.214V390.551H230.69L234.253 384.675H237.87L233.464 391.693L238.251 399.2H234.198L230.662 393.379ZM253.9 392.019C253.9 392.255 253.882 392.591 253.846 393.026H242.449C242.648 394.096 243.165 394.948 243.999 395.583C244.851 396.199 245.903 396.507 247.154 396.507C248.75 396.507 250.065 395.982 251.098 394.93L252.921 397.024C252.268 397.804 251.443 398.393 250.446 398.792C249.448 399.191 248.324 399.391 247.073 399.391C245.477 399.391 244.072 399.073 242.857 398.439C241.642 397.804 240.699 396.924 240.028 395.8C239.375 394.658 239.049 393.37 239.049 391.938C239.049 390.523 239.366 389.254 240.001 388.13C240.654 386.987 241.551 386.099 242.694 385.464C243.836 384.83 245.123 384.512 246.556 384.512C247.97 384.512 249.231 384.83 250.337 385.464C251.461 386.081 252.331 386.96 252.948 388.103C253.583 389.227 253.9 390.532 253.9 392.019ZM246.556 387.232C245.468 387.232 244.543 387.559 243.782 388.211C243.038 388.846 242.585 389.698 242.422 390.768H250.663C250.518 389.716 250.074 388.864 249.33 388.211C248.587 387.559 247.662 387.232 246.556 387.232ZM270.598 384.675V399.2H267.198V387.559H261.758L261.622 390.442C261.531 392.364 261.35 393.978 261.078 395.283C260.824 396.571 260.38 397.595 259.745 398.357C259.128 399.1 258.276 399.472 257.188 399.472C256.68 399.472 256.055 399.372 255.311 399.173L255.474 396.317C255.728 396.371 255.946 396.399 256.127 396.399C256.816 396.399 257.333 396.127 257.678 395.583C258.022 395.02 258.24 394.359 258.33 393.597C258.439 392.817 258.53 391.711 258.602 390.279L258.847 384.675H270.598ZM288.45 384.512C289.901 384.512 291.197 384.83 292.34 385.464C293.482 386.081 294.38 386.96 295.033 388.103C295.685 389.227 296.012 390.505 296.012 391.938C296.012 393.37 295.685 394.658 295.033 395.8C294.38 396.924 293.482 397.804 292.34 398.439C291.197 399.073 289.901 399.391 288.45 399.391C287.181 399.391 286.02 399.146 284.969 398.656C283.917 398.148 283.046 397.441 282.357 396.535C281.668 395.61 281.224 394.558 281.025 393.379H278.577V399.2H275.177V384.675H278.577V390.306H281.079C281.297 389.163 281.75 388.157 282.439 387.287C283.128 386.398 283.989 385.718 285.023 385.247C286.057 384.757 287.199 384.512 288.45 384.512ZM288.45 396.507C289.248 396.507 289.964 396.326 290.599 395.963C291.234 395.583 291.732 395.048 292.095 394.359C292.458 393.651 292.639 392.844 292.639 391.938C292.639 390.56 292.24 389.463 291.442 388.647C290.662 387.812 289.665 387.395 288.45 387.395C287.235 387.395 286.238 387.812 285.458 388.647C284.678 389.463 284.289 390.56 284.289 391.938C284.289 393.316 284.678 394.422 285.458 395.256C286.256 396.09 287.253 396.507 288.45 396.507ZM307.209 385.383C308.587 385.383 309.802 385.682 310.854 386.28C311.906 386.86 312.722 387.676 313.302 388.728C313.9 389.78 314.2 390.986 314.2 392.346C314.2 393.742 313.873 394.984 313.22 396.072C312.568 397.142 311.652 397.976 310.473 398.575C309.295 399.173 307.953 399.472 306.448 399.472C303.927 399.472 301.978 398.638 300.6 396.97C299.222 395.302 298.532 392.899 298.532 389.762C298.532 386.842 299.158 384.53 300.409 382.826C301.66 381.121 303.574 379.997 306.148 379.453L312.894 378.011L313.384 381.058L307.264 382.309C305.505 382.672 304.19 383.288 303.32 384.159C302.449 385.029 301.942 386.253 301.796 387.831C302.449 387.051 303.238 386.452 304.163 386.035C305.088 385.6 306.103 385.383 307.209 385.383ZM306.529 396.725C307.78 396.725 308.787 396.326 309.548 395.528C310.328 394.712 310.718 393.679 310.718 392.427C310.718 391.176 310.328 390.17 309.548 389.408C308.787 388.647 307.78 388.266 306.529 388.266C305.26 388.266 304.235 388.647 303.456 389.408C302.676 390.17 302.286 391.176 302.286 392.427C302.286 393.697 302.676 394.73 303.456 395.528C304.254 396.326 305.278 396.725 306.529 396.725ZM317.491 384.675H320.891V390.578H328.207V384.675H331.607V399.2H328.207V393.461H320.891V399.2H317.491V384.675ZM343.236 389.463C345.086 389.463 346.5 389.88 347.479 390.714C348.459 391.548 348.948 392.727 348.948 394.25C348.948 395.846 348.404 397.079 347.316 397.949C346.246 398.819 344.723 399.246 342.747 399.227L336.164 399.2V384.675H339.564V389.435L343.236 389.463ZM350.825 384.675H354.225V399.2H350.825V384.675ZM342.447 396.725C343.445 396.743 344.206 396.535 344.732 396.099C345.258 395.664 345.521 395.03 345.521 394.195C345.521 393.379 345.267 392.781 344.759 392.4C344.252 392.019 343.481 391.82 342.447 391.802L339.564 391.775V396.698L342.447 396.725ZM358.795 384.675H362.195V394.25L370.219 384.675H373.32V399.2H369.92V389.626L361.923 399.2H358.795V384.675ZM365.84 382.962C364.371 382.962 363.247 382.626 362.467 381.955C361.706 381.266 361.316 380.269 361.298 378.963H363.555C363.573 379.616 363.773 380.133 364.154 380.514C364.553 380.895 365.106 381.085 365.813 381.085C366.502 381.085 367.046 380.895 367.445 380.514C367.862 380.133 368.08 379.616 368.098 378.963H370.41C370.392 380.269 369.993 381.266 369.213 381.955C368.433 382.626 367.309 382.962 365.84 382.962ZM200.77 426.379H198.132V432.2H194.732V417.675H198.132V423.551H200.852L205.15 417.675H208.794L203.518 424.666L209.148 432.2H205.15L200.77 426.379ZM217.542 432.391C216.073 432.391 214.749 432.073 213.57 431.439C212.392 430.804 211.467 429.924 210.796 428.8C210.143 427.658 209.817 426.37 209.817 424.938C209.817 423.505 210.143 422.227 210.796 421.103C211.467 419.978 212.392 419.099 213.57 418.464C214.749 417.83 216.073 417.512 217.542 417.512C219.029 417.512 220.361 417.83 221.54 418.464C222.719 419.099 223.634 419.978 224.287 421.103C224.958 422.227 225.294 423.505 225.294 424.938C225.294 426.37 224.958 427.658 224.287 428.8C223.634 429.924 222.719 430.804 221.54 431.439C220.361 432.073 219.029 432.391 217.542 432.391ZM217.542 429.48C218.793 429.48 219.826 429.063 220.642 428.229C221.458 427.395 221.866 426.298 221.866 424.938C221.866 423.578 221.458 422.481 220.642 421.647C219.826 420.812 218.793 420.395 217.542 420.395C216.29 420.395 215.257 420.812 214.441 421.647C213.643 422.481 213.244 423.578 213.244 424.938C213.244 426.298 213.643 427.395 214.441 428.229C215.257 429.063 216.29 429.48 217.542 429.48ZM241.658 417.675V432.2H238.258V420.559H232.818L232.682 423.442C232.591 425.364 232.41 426.978 232.138 428.283C231.884 429.571 231.44 430.595 230.805 431.357C230.188 432.1 229.336 432.472 228.248 432.472C227.74 432.472 227.115 432.372 226.371 432.173L226.535 429.317C226.788 429.371 227.006 429.399 227.187 429.399C227.876 429.399 228.393 429.127 228.738 428.583C229.082 428.02 229.3 427.359 229.391 426.597C229.499 425.817 229.59 424.711 229.663 423.279L229.907 417.675H241.658ZM259.402 417.675V432.2H256.002V420.559H250.562L250.426 423.442C250.335 425.364 250.154 426.978 249.882 428.283C249.628 429.571 249.183 430.595 248.549 431.357C247.932 432.1 247.08 432.472 245.992 432.472C245.484 432.472 244.859 432.372 244.115 432.173L244.278 429.317C244.532 429.371 244.75 429.399 244.931 429.399C245.62 429.399 246.137 429.127 246.482 428.583C246.826 428.02 247.044 427.359 247.134 426.597C247.243 425.817 247.334 424.711 247.406 423.279L247.651 417.675H259.402ZM277.581 425.019C277.581 425.255 277.562 425.591 277.526 426.026H266.129C266.329 427.096 266.846 427.948 267.68 428.583C268.532 429.199 269.584 429.507 270.835 429.507C272.431 429.507 273.745 428.982 274.779 427.93L276.601 430.024C275.949 430.804 275.123 431.393 274.126 431.792C273.129 432.191 272.005 432.391 270.753 432.391C269.158 432.391 267.752 432.073 266.537 431.439C265.322 430.804 264.379 429.924 263.709 428.8C263.056 427.658 262.729 426.37 262.729 424.938C262.729 423.523 263.047 422.254 263.681 421.13C264.334 419.987 265.232 419.099 266.374 418.464C267.517 417.83 268.804 417.512 270.237 417.512C271.651 417.512 272.911 417.83 274.017 418.464C275.142 419.081 276.012 419.96 276.629 421.103C277.263 422.227 277.581 423.532 277.581 425.019ZM270.237 420.232C269.149 420.232 268.224 420.559 267.462 421.211C266.719 421.846 266.265 422.698 266.102 423.768H274.344C274.199 422.716 273.754 421.864 273.011 421.211C272.267 420.559 271.343 420.232 270.237 420.232ZM287.338 426.379H284.699V432.2H281.299V417.675H284.699V423.551H287.419L291.717 417.675H295.362L290.085 424.666L295.715 432.2H291.717L287.338 426.379ZM309.433 420.559H304.347V432.2H300.947V420.559H295.833V417.675H309.433V420.559ZM311.899 417.675H315.299V427.25L323.323 417.675H326.424V432.2H323.024V422.626L315.027 432.2H311.899V417.675ZM341.524 424.639C343.319 425.183 344.217 426.343 344.217 428.12C344.217 429.426 343.727 430.432 342.748 431.139C341.769 431.847 340.318 432.2 338.396 432.2H330.998V417.675H338.097C339.874 417.675 341.261 418.002 342.258 418.655C343.256 419.307 343.754 420.232 343.754 421.429C343.754 422.172 343.555 422.816 343.156 423.36C342.775 423.904 342.231 424.33 341.524 424.639ZM334.234 423.741H337.798C339.557 423.741 340.436 423.134 340.436 421.919C340.436 420.74 339.557 420.151 337.798 420.151H334.234V423.741ZM338.124 429.725C339.992 429.725 340.926 429.118 340.926 427.903C340.926 427.268 340.708 426.796 340.273 426.488C339.838 426.162 339.158 425.999 338.233 425.999H334.234V429.725H338.124Z" fill="white"/>
<path d="M269 233.534H269.067M242.333 233.534H242.4M295.667 233.534H295.733M270.93 280.19C309.643 279.763 329 266.327 329 233.534C329 200.201 309 186.867 269 186.867C229 186.867 209 200.201 209 233.534C209 254.048 216.575 266.987 231.725 273.905L222.333 300.201L270.93 280.19Z" stroke="#FEEFBB" stroke-width="13.3333" stroke-linecap="round" stroke-linejoin="round"/>
</svg>
