<svg width="537" height="597" viewBox="0 0 537 597" fill="none" xmlns="http://www.w3.org/2000/svg">
<rect width="537" height="597" fill="#1E1E1E"/>
<path d="M207.062 347.16V366.2H203.581V350.152H193.707V366.2H190.225V347.16H207.062ZM217.463 351.512C219.603 351.512 221.235 352.029 222.359 353.063C223.501 354.078 224.073 355.619 224.073 357.687V366.2H220.863V364.432C220.446 365.067 219.848 365.556 219.068 365.901C218.306 366.227 217.381 366.391 216.293 366.391C215.205 366.391 214.253 366.209 213.437 365.847C212.621 365.466 211.987 364.949 211.533 364.296C211.098 363.625 210.881 362.873 210.881 362.039C210.881 360.733 211.361 359.69 212.322 358.911C213.301 358.113 214.834 357.714 216.919 357.714H220.673V357.496C220.673 356.481 220.364 355.701 219.748 355.157C219.149 354.613 218.252 354.341 217.055 354.341C216.239 354.341 215.432 354.468 214.634 354.722C213.854 354.976 213.193 355.329 212.649 355.783L211.316 353.307C212.077 352.727 212.993 352.283 214.063 351.975C215.133 351.666 216.266 351.512 217.463 351.512ZM217.001 363.915C217.853 363.915 218.605 363.725 219.258 363.344C219.929 362.945 220.401 362.383 220.673 361.658V359.971H217.164C215.205 359.971 214.226 360.615 214.226 361.903C214.226 362.519 214.471 363.009 214.961 363.371C215.45 363.734 216.13 363.915 217.001 363.915ZM242.56 366.2V356.571L237.664 364.677H236.195L231.381 356.544V366.2H228.28V351.675H231.843L237.011 360.76L242.424 351.675H245.606L245.634 366.2H242.56ZM255.607 351.512C257.747 351.512 259.379 352.029 260.503 353.063C261.645 354.078 262.216 355.619 262.216 357.687V366.2H259.007V364.432C258.59 365.067 257.991 365.556 257.212 365.901C256.45 366.227 255.525 366.391 254.437 366.391C253.349 366.391 252.397 366.209 251.581 365.847C250.765 365.466 250.131 364.949 249.677 364.296C249.242 363.625 249.024 362.873 249.024 362.039C249.024 360.733 249.505 359.69 250.466 358.911C251.445 358.113 252.977 357.714 255.063 357.714H258.816V357.496C258.816 356.481 258.508 355.701 257.892 355.157C257.293 354.613 256.396 354.341 255.199 354.341C254.383 354.341 253.576 354.468 252.778 354.722C251.998 354.976 251.336 355.329 250.792 355.783L249.46 353.307C250.221 352.727 251.137 352.283 252.207 351.975C253.277 351.666 254.41 351.512 255.607 351.512ZM255.144 363.915C255.997 363.915 256.749 363.725 257.402 363.344C258.073 362.945 258.544 362.383 258.816 361.658V359.971H255.308C253.349 359.971 252.37 360.615 252.37 361.903C252.37 362.519 252.615 363.009 253.104 363.371C253.594 363.734 254.274 363.915 255.144 363.915ZM277.929 354.559H272.843V366.2H269.443V354.559H264.329V351.675H277.929V354.559ZM294.211 351.675L287.411 367.37C286.776 368.947 286.005 370.054 285.099 370.688C284.192 371.341 283.095 371.667 281.807 371.667C281.082 371.667 280.366 371.55 279.659 371.314C278.951 371.078 278.371 370.752 277.918 370.335L279.278 367.832C279.604 368.14 279.985 368.385 280.42 368.567C280.874 368.748 281.327 368.839 281.78 368.839C282.379 368.839 282.868 368.684 283.249 368.376C283.648 368.068 284.011 367.551 284.337 366.826L284.582 366.255L278.244 351.675H281.78L286.35 362.419L290.947 351.675H294.211ZM317.979 351.675V366.2H296.572V351.675H299.972V363.317H305.603V351.675H309.003V363.317H314.579V351.675H317.979ZM334.056 354.559H328.969V366.2H325.569V354.559H320.456V351.675H334.056V354.559ZM341.935 351.512C344.075 351.512 345.707 352.029 346.831 353.063C347.973 354.078 348.545 355.619 348.545 357.687V366.2H345.335V364.432C344.918 365.067 344.319 365.556 343.54 365.901C342.778 366.227 341.853 366.391 340.765 366.391C339.677 366.391 338.725 366.209 337.909 365.847C337.093 365.466 336.459 364.949 336.005 364.296C335.57 363.625 335.353 362.873 335.353 362.039C335.353 360.733 335.833 359.69 336.794 358.911C337.773 358.113 339.306 357.714 341.391 357.714H345.145V357.496C345.145 356.481 344.836 355.701 344.22 355.157C343.621 354.613 342.724 354.341 341.527 354.341C340.711 354.341 339.904 354.468 339.106 354.722C338.326 354.976 337.665 355.329 337.121 355.783L335.788 353.307C336.549 352.727 337.465 352.283 338.535 351.975C339.605 351.666 340.738 351.512 341.935 351.512ZM341.473 363.915C342.325 363.915 343.077 363.725 343.73 363.344C344.401 362.945 344.873 362.383 345.145 361.658V359.971H341.636C339.677 359.971 338.698 360.615 338.698 361.903C338.698 362.519 338.943 363.009 339.433 363.371C339.922 363.734 340.602 363.915 341.473 363.915ZM202.982 399.2V389.571L198.086 397.677H196.617L191.803 389.544V399.2H188.702V384.675H192.265L197.433 393.76L202.846 384.675H206.028L206.055 399.2H202.982ZM217.688 389.463C219.537 389.463 220.952 389.88 221.931 390.714C222.91 391.548 223.4 392.727 223.4 394.25C223.4 395.846 222.856 397.079 221.768 397.949C220.698 398.819 219.175 399.246 217.198 399.227L210.616 399.2V384.675H214.016V389.435L217.688 389.463ZM225.277 384.675H228.677V399.2H225.277V384.675ZM216.899 396.725C217.896 396.743 218.658 396.535 219.184 396.099C219.71 395.664 219.973 395.03 219.973 394.195C219.973 393.379 219.719 392.781 219.211 392.4C218.703 392.019 217.933 391.82 216.899 391.802L214.016 391.775V396.698L216.899 396.725ZM253.929 384.675V399.2H250.529V387.559H245.089L244.953 390.442C244.862 392.364 244.681 393.978 244.409 395.283C244.155 396.571 243.711 397.595 243.076 398.357C242.46 399.1 241.607 399.472 240.519 399.472C240.012 399.472 239.386 399.372 238.643 399.173L238.806 396.317C239.06 396.371 239.277 396.399 239.459 396.399C240.148 396.399 240.665 396.127 241.009 395.583C241.354 395.02 241.571 394.359 241.662 393.597C241.771 392.817 241.861 391.711 241.934 390.279L242.179 384.675H253.929ZM272.217 384.675L265.417 400.37C264.782 401.947 264.012 403.054 263.105 403.688C262.198 404.341 261.101 404.667 259.814 404.667C259.088 404.667 258.372 404.55 257.665 404.314C256.958 404.078 256.377 403.752 255.924 403.335L257.284 400.832C257.61 401.14 257.991 401.385 258.426 401.567C258.88 401.748 259.333 401.839 259.786 401.839C260.385 401.839 260.874 401.684 261.255 401.376C261.654 401.068 262.017 400.551 262.343 399.826L262.588 399.255L256.25 384.675H259.786L264.356 395.419L268.953 384.675H272.217ZM286.9 384.675V399.2H283.5V393.57C282.104 394.241 280.644 394.576 279.121 394.576C277.253 394.576 275.82 394.15 274.823 393.298C273.826 392.427 273.327 391.104 273.327 389.327V384.675H276.727V389.109C276.727 390.034 276.999 390.723 277.543 391.176C278.087 391.63 278.858 391.856 279.855 391.856C281.124 391.856 282.339 391.584 283.5 391.04V384.675H286.9ZM312.879 384.675V399.2H291.472V384.675H294.872V396.317H300.503V384.675H303.903V396.317H309.479V384.675H312.879ZM317.45 384.675H320.85V394.25L328.874 384.675H331.975V399.2H328.575V389.626L320.578 399.2H317.45V384.675ZM350.149 392.019C350.149 392.255 350.131 392.591 350.094 393.026H338.697C338.897 394.096 339.414 394.948 340.248 395.583C341.1 396.199 342.152 396.507 343.403 396.507C344.999 396.507 346.313 395.982 347.347 394.93L349.169 397.024C348.517 397.804 347.692 398.393 346.694 398.792C345.697 399.191 344.573 399.391 343.321 399.391C341.726 399.391 340.32 399.073 339.105 398.439C337.891 397.804 336.948 396.924 336.277 395.8C335.624 394.658 335.297 393.37 335.297 391.938C335.297 390.523 335.615 389.254 336.249 388.13C336.902 386.987 337.8 386.099 338.942 385.464C340.085 384.83 341.372 384.512 342.805 384.512C344.219 384.512 345.479 384.83 346.585 385.464C347.71 386.081 348.58 386.96 349.197 388.103C349.831 389.227 350.149 390.532 350.149 392.019ZM342.805 387.232C341.717 387.232 340.792 387.559 340.03 388.211C339.287 388.846 338.833 389.698 338.67 390.768H346.912C346.767 389.716 346.323 388.864 345.579 388.211C344.836 387.559 343.911 387.232 342.805 387.232Z" fill="white"/>
<path d="M335.667 240.2C335.667 277.019 305.82 306.867 269.001 306.867C232.182 306.867 202.334 277.019 202.334 240.2C202.334 203.381 232.182 173.533 269.001 173.533C305.82 173.533 335.667 203.381 335.667 240.2Z" stroke="#FEEFBB" stroke-width="13.3333" stroke-linecap="round" stroke-linejoin="round"/>
<path d="M269.001 200.2L280.125 225.979L309.001 228.211L287.001 246.375L293.722 273.533L269.001 258.979L244.279 273.533L251.001 246.375L229.001 228.211L257.876 225.979L269.001 200.2Z" stroke="#FEEFBB" stroke-width="13.3333" stroke-linecap="round" stroke-linejoin="round"/>
</svg>
