<svg width="294" height="392" viewBox="0 0 294 392" fill="none" xmlns="http://www.w3.org/2000/svg" xmlns:xlink="http://www.w3.org/1999/xlink">
<rect width="294" height="392" fill="url(#paint0_radial_155_111)"/>
<rect width="294" height="392" fill="url(#pattern0_155_111)" fill-opacity="0.2"/>
<g filter="url(#filter0_d_155_111)">
<path d="M187.808 222.387L191.414 225.993L181.259 236.148L199.925 234.503L203.214 237.792L187.808 253.198L184.202 249.592L194.357 239.437L175.72 241.11L172.402 237.792L187.808 222.387Z" fill="#FEEFBB"/>
<path d="M167.551 202.13L171.157 205.736L161.002 215.891L179.668 214.247L182.957 217.535L167.551 232.941L163.945 229.335L174.1 219.18L155.463 220.853L152.145 217.535L167.551 202.13Z" fill="#FEEFBB"/>
<path d="M151.993 211.267L145.386 217.874L142.011 214.499L145.559 210.95L132.029 197.419L147.435 182.013L151.041 185.62L138.693 197.968L146.05 205.324L158.398 192.976L162.004 196.583L149.656 208.93L151.993 211.267Z" fill="#FEEFBB"/>
<path d="M126.773 179.816L123.975 177.018L117.801 183.192L114.195 179.585L129.601 164.179L133.207 167.786L126.975 174.017L129.86 176.902L140.65 175.229L144.516 179.095L131.505 180.912L129.485 194.876L125.244 190.635L126.773 179.816Z" fill="#FEEFBB"/>
<path d="M110.233 166.276L100.135 156.178L93.4707 158.861L89.6048 154.995L118.888 143.888L122.58 147.581L111.502 176.892L107.578 172.969L110.233 166.276ZM111.935 162.092L116.955 149.456L104.347 154.505L111.935 162.092Z" fill="#FEEFBB"/>
</g>
<g filter="url(#filter1_f_155_111)">
<ellipse cx="146.944" cy="195.754" rx="102.6" ry="19.7529" transform="rotate(45 146.944 195.754)" fill="#FCC600"/>
</g>
<defs>
<filter id="filter0_d_155_111" x="81.6045" y="135.888" width="129.609" height="125.31" filterUnits="userSpaceOnUse" color-interpolation-filters="sRGB">
<feFlood flood-opacity="0" result="BackgroundImageFix"/>
<feColorMatrix in="SourceAlpha" type="matrix" values="0 0 0 0 0 0 0 0 0 0 0 0 0 0 0 0 0 0 127 0" result="hardAlpha"/>
<feOffset/>
<feGaussianBlur stdDeviation="4"/>
<feComposite in2="hardAlpha" operator="out"/>
<feColorMatrix type="matrix" values="0 0 0 0 0.988235 0 0 0 0 0.776471 0 0 0 0 0 0 0 0 1 0"/>
<feBlend mode="normal" in2="BackgroundImageFix" result="effect1_dropShadow_155_111"/>
<feBlend mode="normal" in="SourceGraphic" in2="effect1_dropShadow_155_111" result="shape"/>
</filter>
<filter id="filter1_f_155_111" x="13.0488" y="61.8594" width="267.79" height="267.79" filterUnits="userSpaceOnUse" color-interpolation-filters="sRGB">
<feFlood flood-opacity="0" result="BackgroundImageFix"/>
<feBlend mode="normal" in="SourceGraphic" in2="BackgroundImageFix" result="shape"/>
<feGaussianBlur stdDeviation="30" result="effect1_foregroundBlur_155_111"/>
</filter>
<radialGradient id="paint0_radial_155_111" cx="0" cy="0" r="1" gradientUnits="userSpaceOnUse" gradientTransform="translate(233.893 72.52) rotate(126.208) scale(395.946 296.96)">
<stop stop-color="#0C75B6"/>
<stop offset="1" stop-color="#060835"/>
</radialGradient>
<pattern id="pattern0_155_111" patternUnits="userSpaceOnUse" patternTransform="matrix(32.7903 0 0 30.7312 0 0)" preserveAspectRatio="none" viewBox="0 0 163.952 153.656" width="1" height="1">
<use xlink:href="#pattern0_155_111_inner" transform="translate(0 -153.656)"/>
<g id="pattern0_155_111_inner">
<g opacity="0.15">
<path d="M36.0436 86.336C25.8436 86.336 17.6156 82.732 11.3596 75.524C5.10359 68.316 1.97559 58.864 1.97559 47.168C1.97559 35.472 5.10359 26.02 11.3596 18.812C17.6156 11.604 25.8436 8 36.0436 8C46.2436 8 54.4716 11.604 60.7276 18.812C67.1196 25.884 70.3156 35.336 70.3156 47.168C70.3156 59 67.1196 68.52 60.7276 75.728C54.4716 82.8 46.2436 86.336 36.0436 86.336ZM121.724 9.42799H141.716L44.2036 152.228H24.2116L121.724 9.42799ZM36.0436 72.056C41.6196 72.056 45.9036 69.88 48.8956 65.528C52.0236 61.176 53.5876 55.056 53.5876 47.168C53.5876 39.28 52.0236 33.16 48.8956 28.808C45.9036 24.456 41.6196 22.28 36.0436 22.28C30.7396 22.28 26.4556 24.524 23.1916 29.012C20.0636 33.364 18.4996 39.416 18.4996 47.168C18.4996 54.92 20.0636 61.04 23.1916 65.528C26.4556 69.88 30.7396 72.056 36.0436 72.056ZM129.68 153.656C119.48 153.656 111.252 150.052 104.996 142.844C98.7396 135.636 95.6116 126.184 95.6116 114.488C95.6116 102.792 98.7396 93.34 104.996 86.132C111.252 78.924 119.48 75.32 129.68 75.32C139.88 75.32 148.108 78.924 154.364 86.132C160.756 93.34 163.952 102.792 163.952 114.488C163.952 126.184 160.756 135.636 154.364 142.844C148.108 150.052 139.88 153.656 129.68 153.656ZM129.68 139.376C135.12 139.376 139.404 137.2 142.532 132.848C145.66 128.36 147.224 122.24 147.224 114.488C147.224 106.736 145.66 100.684 142.532 96.332C139.404 91.844 135.12 89.6 129.68 89.6C124.24 89.6 119.956 91.776 116.828 96.128C113.7 100.48 112.136 106.6 112.136 114.488C112.136 122.376 113.7 128.496 116.828 132.848C119.956 137.2 124.24 139.376 129.68 139.376Z" fill="black"/>
<path d="M34.068 78.336C23.868 78.336 15.64 74.732 9.384 67.524C3.128 60.316 0 50.864 0 39.168C0 27.472 3.128 18.02 9.384 10.812C15.64 3.604 23.868 0 34.068 0C44.268 0 52.496 3.604 58.752 10.812C65.144 17.884 68.34 27.336 68.34 39.168C68.34 51 65.144 60.52 58.752 67.728C52.496 74.8 44.268 78.336 34.068 78.336ZM119.748 1.42799H139.74L42.228 144.228H22.236L119.748 1.42799ZM34.068 64.056C39.644 64.056 43.928 61.88 46.92 57.528C50.048 53.176 51.612 47.056 51.612 39.168C51.612 31.28 50.048 25.16 46.92 20.808C43.928 16.456 39.644 14.28 34.068 14.28C28.764 14.28 24.48 16.524 21.216 21.012C18.088 25.364 16.524 31.416 16.524 39.168C16.524 46.92 18.088 53.04 21.216 57.528C24.48 61.88 28.764 64.056 34.068 64.056ZM127.704 145.656C117.504 145.656 109.276 142.052 103.02 134.844C96.764 127.636 93.636 118.184 93.636 106.488C93.636 94.792 96.764 85.34 103.02 78.132C109.276 70.924 117.504 67.32 127.704 67.32C137.904 67.32 146.132 70.924 152.388 78.132C158.78 85.34 161.976 94.792 161.976 106.488C161.976 118.184 158.78 127.636 152.388 134.844C146.132 142.052 137.904 145.656 127.704 145.656ZM127.704 131.376C133.144 131.376 137.428 129.2 140.556 124.848C143.684 120.36 145.248 114.24 145.248 106.488C145.248 98.736 143.684 92.684 140.556 88.332C137.428 83.844 133.144 81.6 127.704 81.6C122.264 81.6 117.98 83.776 114.852 88.128C111.724 92.48 110.16 98.6 110.16 106.488C110.16 114.376 111.724 120.496 114.852 124.848C117.98 129.2 122.264 131.376 127.704 131.376Z" fill="#FCC40A"/>
</g>
</g>
</pattern></defs>
</svg>
