<svg width="294" height="392" viewBox="0 0 294 392" fill="none" xmlns="http://www.w3.org/2000/svg" xmlns:xlink="http://www.w3.org/1999/xlink">
<rect width="294" height="392" fill="url(#paint0_radial_155_82)"/>
<rect width="294" height="392" fill="url(#pattern0_155_82)" fill-opacity="0.2"/>
<g filter="url(#filter0_f_155_82)">
<ellipse cx="146.945" cy="195.754" rx="102.6" ry="19.7529" transform="rotate(45 146.945 195.754)" fill="#FCC600"/>
</g>
<g filter="url(#filter1_d_155_82)">
<path d="M195.002 229.957L198.608 233.563L188.453 243.718L207.119 242.074L210.408 245.363L195.002 260.769L191.396 257.162L201.551 247.007L182.914 248.68L179.596 245.363L195.002 229.957Z" fill="#FEEFBB"/>
<path d="M174.34 227.76L171.542 224.961L165.368 231.135L161.762 227.529L177.168 212.123L180.774 215.729L174.542 221.961L177.427 224.846L188.217 223.172L192.083 227.038L179.072 228.856L177.052 242.819L172.811 238.578L174.34 227.76Z" fill="#FEEFBB"/>
<path d="M161.599 221.25L155.108 227.741L151.732 224.366L155.166 220.932L143.279 209.046L139.846 212.479L136.5 209.133L142.991 202.642L143.712 203.363C144.732 204.305 146.02 204.344 147.578 203.478C149.174 202.613 151.146 201.122 153.492 199.006L158.974 193.929L171.668 206.623L159.32 218.971L161.599 221.25ZM156.522 202.555C154.675 204.248 153.088 205.546 151.761 206.45C150.434 207.354 149.223 207.796 148.126 207.777L155.714 215.364L165.003 206.075L159.089 200.16L156.522 202.555Z" fill="#FEEFBB"/>
<path d="M137.246 172.201L140.852 175.807L130.697 185.962L149.362 184.318L152.651 187.606L137.246 203.012L133.639 199.406L143.794 189.251L125.157 190.924L121.84 187.606L137.246 172.201Z" fill="#FEEFBB"/>
<path d="M116.584 170.003L113.786 167.205L107.612 173.379L104.006 169.772L119.411 154.367L123.018 157.973L116.786 164.204L119.671 167.089L130.461 165.416L134.327 169.282L121.316 171.1L119.296 185.063L115.055 180.822L116.584 170.003Z" fill="#FEEFBB"/>
<path d="M92.6185 158.962C90.5798 156.924 89.1757 154.635 88.4064 152.096C87.6755 149.557 87.6275 147.028 88.2622 144.508C88.9161 142.008 90.2336 139.767 92.2146 137.786C94.1956 135.805 96.4459 134.497 98.9655 133.863C101.485 133.228 104.005 133.286 106.524 134.036C109.082 134.786 111.381 136.18 113.419 138.219C115.073 139.873 116.295 141.672 117.083 143.614C117.872 145.557 118.189 147.547 118.035 149.586L113.333 149.442C113.448 146.403 112.438 143.816 110.304 141.681C108.919 140.296 107.37 139.364 105.659 138.883C103.966 138.383 102.274 138.363 100.581 138.825C98.8886 139.287 97.3595 140.2 95.9939 141.566C94.6284 142.931 93.7148 144.46 93.2532 146.153C92.7916 147.845 92.8012 149.548 93.282 151.259C93.7821 152.952 94.7245 154.491 96.1093 155.875C98.2442 158.01 100.841 159.01 103.899 158.876L104.014 163.607C101.976 163.761 99.9752 163.434 98.0134 162.626C96.0709 161.838 94.2726 160.616 92.6185 158.962Z" fill="#FEEFBB"/>
</g>
<defs>
<filter id="filter0_f_155_82" x="13.0498" y="61.8594" width="267.79" height="267.79" filterUnits="userSpaceOnUse" color-interpolation-filters="sRGB">
<feFlood flood-opacity="0" result="BackgroundImageFix"/>
<feBlend mode="normal" in="SourceGraphic" in2="BackgroundImageFix" result="shape"/>
<feGaussianBlur stdDeviation="30" result="effect1_foregroundBlur_155_82"/>
</filter>
<filter id="filter1_d_155_82" x="79.8193" y="125.426" width="138.588" height="143.342" filterUnits="userSpaceOnUse" color-interpolation-filters="sRGB">
<feFlood flood-opacity="0" result="BackgroundImageFix"/>
<feColorMatrix in="SourceAlpha" type="matrix" values="0 0 0 0 0 0 0 0 0 0 0 0 0 0 0 0 0 0 127 0" result="hardAlpha"/>
<feOffset/>
<feGaussianBlur stdDeviation="4"/>
<feComposite in2="hardAlpha" operator="out"/>
<feColorMatrix type="matrix" values="0 0 0 0 0.988235 0 0 0 0 0.776471 0 0 0 0 0 0 0 0 1 0"/>
<feBlend mode="normal" in2="BackgroundImageFix" result="effect1_dropShadow_155_82"/>
<feBlend mode="normal" in="SourceGraphic" in2="effect1_dropShadow_155_82" result="shape"/>
</filter>
<radialGradient id="paint0_radial_155_82" cx="0" cy="0" r="1" gradientUnits="userSpaceOnUse" gradientTransform="translate(233.893 72.52) rotate(126.208) scale(395.946 296.96)">
<stop stop-color="#311DA3"/>
<stop offset="1" stop-color="#0E0736"/>
</radialGradient>
<pattern id="pattern0_155_82" patternUnits="userSpaceOnUse" patternTransform="matrix(32.7903 0 0 30.7312 0 0)" preserveAspectRatio="none" viewBox="0 0 163.952 153.656" width="1" height="1">
<use xlink:href="#pattern0_155_82_inner" transform="translate(0 -153.656)"/>
<g id="pattern0_155_82_inner">
<g opacity="0.15">
<path d="M36.0436 86.336C25.8436 86.336 17.6156 82.732 11.3596 75.524C5.10359 68.316 1.97559 58.864 1.97559 47.168C1.97559 35.472 5.10359 26.02 11.3596 18.812C17.6156 11.604 25.8436 8 36.0436 8C46.2436 8 54.4716 11.604 60.7276 18.812C67.1196 25.884 70.3156 35.336 70.3156 47.168C70.3156 59 67.1196 68.52 60.7276 75.728C54.4716 82.8 46.2436 86.336 36.0436 86.336ZM121.724 9.42799H141.716L44.2036 152.228H24.2116L121.724 9.42799ZM36.0436 72.056C41.6196 72.056 45.9036 69.88 48.8956 65.528C52.0236 61.176 53.5876 55.056 53.5876 47.168C53.5876 39.28 52.0236 33.16 48.8956 28.808C45.9036 24.456 41.6196 22.28 36.0436 22.28C30.7396 22.28 26.4556 24.524 23.1916 29.012C20.0636 33.364 18.4996 39.416 18.4996 47.168C18.4996 54.92 20.0636 61.04 23.1916 65.528C26.4556 69.88 30.7396 72.056 36.0436 72.056ZM129.68 153.656C119.48 153.656 111.252 150.052 104.996 142.844C98.7396 135.636 95.6116 126.184 95.6116 114.488C95.6116 102.792 98.7396 93.34 104.996 86.132C111.252 78.924 119.48 75.32 129.68 75.32C139.88 75.32 148.108 78.924 154.364 86.132C160.756 93.34 163.952 102.792 163.952 114.488C163.952 126.184 160.756 135.636 154.364 142.844C148.108 150.052 139.88 153.656 129.68 153.656ZM129.68 139.376C135.12 139.376 139.404 137.2 142.532 132.848C145.66 128.36 147.224 122.24 147.224 114.488C147.224 106.736 145.66 100.684 142.532 96.332C139.404 91.844 135.12 89.6 129.68 89.6C124.24 89.6 119.956 91.776 116.828 96.128C113.7 100.48 112.136 106.6 112.136 114.488C112.136 122.376 113.7 128.496 116.828 132.848C119.956 137.2 124.24 139.376 129.68 139.376Z" fill="black"/>
<path d="M34.068 78.336C23.868 78.336 15.64 74.732 9.384 67.524C3.128 60.316 0 50.864 0 39.168C0 27.472 3.128 18.02 9.384 10.812C15.64 3.604 23.868 0 34.068 0C44.268 0 52.496 3.604 58.752 10.812C65.144 17.884 68.34 27.336 68.34 39.168C68.34 51 65.144 60.52 58.752 67.728C52.496 74.8 44.268 78.336 34.068 78.336ZM119.748 1.42799H139.74L42.228 144.228H22.236L119.748 1.42799ZM34.068 64.056C39.644 64.056 43.928 61.88 46.92 57.528C50.048 53.176 51.612 47.056 51.612 39.168C51.612 31.28 50.048 25.16 46.92 20.808C43.928 16.456 39.644 14.28 34.068 14.28C28.764 14.28 24.48 16.524 21.216 21.012C18.088 25.364 16.524 31.416 16.524 39.168C16.524 46.92 18.088 53.04 21.216 57.528C24.48 61.88 28.764 64.056 34.068 64.056ZM127.704 145.656C117.504 145.656 109.276 142.052 103.02 134.844C96.764 127.636 93.636 118.184 93.636 106.488C93.636 94.792 96.764 85.34 103.02 78.132C109.276 70.924 117.504 67.32 127.704 67.32C137.904 67.32 146.132 70.924 152.388 78.132C158.78 85.34 161.976 94.792 161.976 106.488C161.976 118.184 158.78 127.636 152.388 134.844C146.132 142.052 137.904 145.656 127.704 145.656ZM127.704 131.376C133.144 131.376 137.428 129.2 140.556 124.848C143.684 120.36 145.248 114.24 145.248 106.488C145.248 98.736 143.684 92.684 140.556 88.332C137.428 83.844 133.144 81.6 127.704 81.6C122.264 81.6 117.98 83.776 114.852 88.128C111.724 92.48 110.16 98.6 110.16 106.488C110.16 114.376 111.724 120.496 114.852 124.848C117.98 129.2 122.264 131.376 127.704 131.376Z" fill="#FCC40A"/>
</g>
</g>
</pattern></defs>
</svg>
