<svg width="294" height="392" viewBox="0 0 294 392" fill="none" xmlns="http://www.w3.org/2000/svg" xmlns:xlink="http://www.w3.org/1999/xlink">
<rect width="294" height="392" fill="url(#paint0_radial_155_113)"/>
<rect width="294" height="392" fill="url(#pattern0_155_113)" fill-opacity="0.2"/>
<g filter="url(#filter0_d_155_113)">
<path d="M202.238 242.374L205.844 245.981L195.689 256.136L214.355 254.491L217.644 257.78L202.238 273.186L198.632 269.58L208.787 259.425L190.15 261.098L186.832 257.78L202.238 242.374Z" fill="#FEEFBB"/>
<path d="M181.577 240.177L178.778 237.379L172.604 243.553L168.998 239.946L184.404 224.54L188.01 228.147L181.778 234.378L184.663 237.263L195.453 235.59L199.319 239.456L186.308 241.273L184.288 255.237L180.047 250.996L181.577 240.177Z" fill="#FEEFBB"/>
<path d="M172.66 212.335C174.276 213.951 175.382 215.749 175.978 217.73C176.594 219.692 176.661 221.644 176.18 223.587C175.719 225.51 174.728 227.231 173.209 228.751C171.689 230.27 169.958 231.27 168.016 231.751C166.073 232.232 164.111 232.174 162.13 231.578C160.168 230.963 158.38 229.847 156.764 228.232C155.36 226.828 154.321 225.327 153.648 223.731C152.975 222.135 152.677 220.509 152.754 218.855L156.851 218.913C156.851 221.336 157.735 223.433 159.505 225.202C160.813 226.51 162.274 227.279 163.89 227.51C165.544 227.741 167.092 227.405 168.535 226.501L161.409 219.375L164.005 216.778L171.103 223.875C171.949 222.452 172.237 220.952 171.968 219.375C171.718 217.778 170.949 216.336 169.66 215.047C167.891 213.278 165.785 212.403 163.342 212.422L163.284 208.325C164.938 208.21 166.554 208.498 168.131 209.191C169.747 209.883 171.256 210.931 172.66 212.335Z" fill="#FEEFBB"/>
<path d="M156.211 197.847C157.672 199.309 158.644 200.915 159.125 202.665C159.625 204.396 159.625 206.127 159.125 207.858C158.644 209.609 157.682 211.205 156.24 212.647C154.759 214.128 153.095 215.1 151.248 215.561C149.421 216.004 147.565 215.917 145.68 215.302C143.796 214.686 142.055 213.58 140.459 211.984C137.785 209.31 136.602 206.358 136.91 203.127C137.218 199.896 139.035 196.616 142.363 193.289C145.459 190.193 148.575 188.404 151.71 187.923C154.845 187.442 158.067 188.279 161.375 190.433L170.059 196.059L167.347 199.809L159.528 194.645C157.278 193.164 155.23 192.424 153.383 192.424C151.537 192.424 149.7 193.183 147.873 194.703C149.392 194.568 150.864 194.77 152.287 195.309C153.73 195.828 155.037 196.674 156.211 197.847ZM143.459 209.157C144.786 210.484 146.277 211.128 147.931 211.089C149.623 211.051 151.133 210.368 152.46 209.041C153.787 207.714 154.441 206.233 154.422 204.598C154.422 202.983 153.758 201.511 152.431 200.184C151.085 198.838 149.594 198.155 147.96 198.136C146.325 198.117 144.844 198.771 143.517 200.098C142.17 201.444 141.488 202.954 141.468 204.627C141.468 206.32 142.132 207.829 143.459 209.157Z" fill="#FEEFBB"/>
<path d="M143.774 183.911L128.368 199.317L105.663 176.612L121.069 161.206L124.675 164.812L112.328 177.16L118.3 183.132L130.647 170.784L134.254 174.39L121.906 186.738L127.82 192.652L140.168 180.304L143.774 183.911Z" fill="#FEEFBB"/>
<path d="M109.326 149.001C110.941 150.616 112.047 152.414 112.644 154.395C113.259 156.357 113.326 158.309 112.845 160.252C112.384 162.175 111.393 163.897 109.874 165.416C108.354 166.936 106.623 167.936 104.681 168.417C102.738 168.897 100.777 168.84 98.7955 168.243C96.8337 167.628 95.045 166.512 93.4294 164.897C92.0254 163.493 90.9868 161.993 90.3136 160.396C89.6405 158.8 89.3424 157.175 89.4193 155.521L93.516 155.578C93.516 158.002 94.4007 160.098 96.1702 161.868C97.478 163.175 98.9398 163.945 100.555 164.176C102.209 164.406 103.758 164.07 105.2 163.166L98.0743 156.04L100.671 153.443L107.768 160.541C108.614 159.117 108.903 157.617 108.633 156.04C108.383 154.444 107.614 153.001 106.325 151.712C104.556 149.943 102.45 149.068 100.007 149.087L99.9495 144.99C101.604 144.875 103.219 145.163 104.796 145.856C106.412 146.548 107.922 147.597 109.326 149.001Z" fill="#FEEFBB"/>
<path d="M85.4799 139.407L81.7294 135.656L73.2186 144.167L69.5259 140.474L89.7208 120.279L93.4136 123.972L84.9606 132.425L88.8265 136.291L103.078 133.637L107.06 137.618L90.3844 140.503L87.1243 158.073L82.8834 153.832L85.4799 139.407Z" fill="#FEEFBB"/>
</g>
<g filter="url(#filter1_f_155_113)">
<ellipse cx="146.944" cy="195.754" rx="111.277" ry="19.7529" transform="rotate(45 146.944 195.754)" fill="#FCC600"/>
</g>
<defs>
<filter id="filter0_d_155_113" x="61.5254" y="112.279" width="164.118" height="168.907" filterUnits="userSpaceOnUse" color-interpolation-filters="sRGB">
<feFlood flood-opacity="0" result="BackgroundImageFix"/>
<feColorMatrix in="SourceAlpha" type="matrix" values="0 0 0 0 0 0 0 0 0 0 0 0 0 0 0 0 0 0 127 0" result="hardAlpha"/>
<feOffset/>
<feGaussianBlur stdDeviation="4"/>
<feComposite in2="hardAlpha" operator="out"/>
<feColorMatrix type="matrix" values="0 0 0 0 0.988235 0 0 0 0 0.776471 0 0 0 0 0 0 0 0 1 0"/>
<feBlend mode="normal" in2="BackgroundImageFix" result="effect1_dropShadow_155_113"/>
<feBlend mode="normal" in="SourceGraphic" in2="effect1_dropShadow_155_113" result="shape"/>
</filter>
<filter id="filter1_f_155_113" x="7.01562" y="55.8257" width="279.856" height="279.857" filterUnits="userSpaceOnUse" color-interpolation-filters="sRGB">
<feFlood flood-opacity="0" result="BackgroundImageFix"/>
<feBlend mode="normal" in="SourceGraphic" in2="BackgroundImageFix" result="shape"/>
<feGaussianBlur stdDeviation="30" result="effect1_foregroundBlur_155_113"/>
</filter>
<radialGradient id="paint0_radial_155_113" cx="0" cy="0" r="1" gradientUnits="userSpaceOnUse" gradientTransform="translate(233.893 72.52) rotate(126.208) scale(395.946 296.96)">
<stop stop-color="#750D1B"/>
<stop offset="1" stop-color="#170205"/>
</radialGradient>
<pattern id="pattern0_155_113" patternUnits="userSpaceOnUse" patternTransform="matrix(32.7903 0 0 30.7312 0 0)" preserveAspectRatio="none" viewBox="0 0 163.952 153.656" width="1" height="1">
<use xlink:href="#pattern0_155_113_inner" transform="translate(0 -153.656)"/>
<g id="pattern0_155_113_inner">
<g opacity="0.15">
<path d="M36.0436 86.336C25.8436 86.336 17.6156 82.732 11.3596 75.524C5.10359 68.316 1.97559 58.864 1.97559 47.168C1.97559 35.472 5.10359 26.02 11.3596 18.812C17.6156 11.604 25.8436 8 36.0436 8C46.2436 8 54.4716 11.604 60.7276 18.812C67.1196 25.884 70.3156 35.336 70.3156 47.168C70.3156 59 67.1196 68.52 60.7276 75.728C54.4716 82.8 46.2436 86.336 36.0436 86.336ZM121.724 9.42799H141.716L44.2036 152.228H24.2116L121.724 9.42799ZM36.0436 72.056C41.6196 72.056 45.9036 69.88 48.8956 65.528C52.0236 61.176 53.5876 55.056 53.5876 47.168C53.5876 39.28 52.0236 33.16 48.8956 28.808C45.9036 24.456 41.6196 22.28 36.0436 22.28C30.7396 22.28 26.4556 24.524 23.1916 29.012C20.0636 33.364 18.4996 39.416 18.4996 47.168C18.4996 54.92 20.0636 61.04 23.1916 65.528C26.4556 69.88 30.7396 72.056 36.0436 72.056ZM129.68 153.656C119.48 153.656 111.252 150.052 104.996 142.844C98.7396 135.636 95.6116 126.184 95.6116 114.488C95.6116 102.792 98.7396 93.34 104.996 86.132C111.252 78.924 119.48 75.32 129.68 75.32C139.88 75.32 148.108 78.924 154.364 86.132C160.756 93.34 163.952 102.792 163.952 114.488C163.952 126.184 160.756 135.636 154.364 142.844C148.108 150.052 139.88 153.656 129.68 153.656ZM129.68 139.376C135.12 139.376 139.404 137.2 142.532 132.848C145.66 128.36 147.224 122.24 147.224 114.488C147.224 106.736 145.66 100.684 142.532 96.332C139.404 91.844 135.12 89.6 129.68 89.6C124.24 89.6 119.956 91.776 116.828 96.128C113.7 100.48 112.136 106.6 112.136 114.488C112.136 122.376 113.7 128.496 116.828 132.848C119.956 137.2 124.24 139.376 129.68 139.376Z" fill="black"/>
<path d="M34.068 78.336C23.868 78.336 15.64 74.732 9.384 67.524C3.128 60.316 0 50.864 0 39.168C0 27.472 3.128 18.02 9.384 10.812C15.64 3.604 23.868 0 34.068 0C44.268 0 52.496 3.604 58.752 10.812C65.144 17.884 68.34 27.336 68.34 39.168C68.34 51 65.144 60.52 58.752 67.728C52.496 74.8 44.268 78.336 34.068 78.336ZM119.748 1.42799H139.74L42.228 144.228H22.236L119.748 1.42799ZM34.068 64.056C39.644 64.056 43.928 61.88 46.92 57.528C50.048 53.176 51.612 47.056 51.612 39.168C51.612 31.28 50.048 25.16 46.92 20.808C43.928 16.456 39.644 14.28 34.068 14.28C28.764 14.28 24.48 16.524 21.216 21.012C18.088 25.364 16.524 31.416 16.524 39.168C16.524 46.92 18.088 53.04 21.216 57.528C24.48 61.88 28.764 64.056 34.068 64.056ZM127.704 145.656C117.504 145.656 109.276 142.052 103.02 134.844C96.764 127.636 93.636 118.184 93.636 106.488C93.636 94.792 96.764 85.34 103.02 78.132C109.276 70.924 117.504 67.32 127.704 67.32C137.904 67.32 146.132 70.924 152.388 78.132C158.78 85.34 161.976 94.792 161.976 106.488C161.976 118.184 158.78 127.636 152.388 134.844C146.132 142.052 137.904 145.656 127.704 145.656ZM127.704 131.376C133.144 131.376 137.428 129.2 140.556 124.848C143.684 120.36 145.248 114.24 145.248 106.488C145.248 98.736 143.684 92.684 140.556 88.332C137.428 83.844 133.144 81.6 127.704 81.6C122.264 81.6 117.98 83.776 114.852 88.128C111.724 92.48 110.16 98.6 110.16 106.488C110.16 114.376 111.724 120.496 114.852 124.848C117.98 129.2 122.264 131.376 127.704 131.376Z" fill="#FCC40A"/>
</g>
</g>
</pattern></defs>
</svg>
