<svg width="490" height="293" viewBox="0 0 490 293" fill="none" xmlns="http://www.w3.org/2000/svg" xmlns:xlink="http://www.w3.org/1999/xlink">
<rect width="490" height="293" fill="url(#paint0_radial_170_282)"/>
<rect width="490" height="293" fill="url(#pattern0_170_282)" fill-opacity="0.2"/>
<g filter="url(#filter0_f_170_282)">
<ellipse cx="245" cy="146.529" rx="142" ry="27.3077" fill="#FCC600"/>
</g>
<g filter="url(#filter1_d_170_282)">
<path d="M325.946 164.48C323.718 164.48 321.708 164.043 319.916 163.17C318.169 162.296 316.792 161.116 315.787 159.631C314.782 158.145 314.28 156.463 314.28 154.584C314.28 152.225 314.87 150.368 316.05 149.013C317.273 147.615 319.261 146.632 322.014 146.064C324.81 145.452 328.567 145.147 333.286 145.147H336.366V149.21H333.352C330.206 149.21 327.715 149.363 325.88 149.669C324.045 149.975 322.734 150.499 321.948 151.242C321.205 151.941 320.834 152.924 320.834 154.191C320.834 155.851 321.402 157.206 322.538 158.254C323.674 159.259 325.247 159.762 327.257 159.762C328.873 159.762 330.293 159.39 331.517 158.647C332.74 157.861 333.701 156.812 334.4 155.502C335.143 154.191 335.514 152.683 335.514 150.979V143.443C335.514 140.952 334.99 139.161 333.942 138.068C332.893 136.976 331.167 136.43 328.764 136.43C327.366 136.43 325.902 136.605 324.373 136.954C322.887 137.304 321.336 137.894 319.72 138.724C318.977 139.073 318.343 139.183 317.819 139.051C317.295 138.92 316.88 138.636 316.574 138.199C316.268 137.719 316.093 137.216 316.05 136.692C316.05 136.124 316.181 135.578 316.443 135.054C316.749 134.529 317.251 134.136 317.95 133.874C319.873 132.956 321.773 132.301 323.652 131.908C325.531 131.515 327.3 131.318 328.961 131.318C331.888 131.318 334.291 131.777 336.17 132.694C338.092 133.612 339.512 135.01 340.43 136.889C341.347 138.767 341.806 141.192 341.806 144.163V161.007C341.806 162.055 341.544 162.886 341.02 163.497C340.495 164.065 339.731 164.349 338.726 164.349C337.765 164.349 337 164.065 336.432 163.497C335.864 162.886 335.58 162.055 335.58 161.007V156.747H336.17C335.82 158.363 335.165 159.762 334.204 160.941C333.286 162.077 332.128 162.951 330.73 163.563C329.332 164.175 327.737 164.48 325.946 164.48Z" fill="#FEEFBB"/>
<path d="M289.813 164.348C288.765 164.348 287.935 164.042 287.323 163.43C286.755 162.819 286.471 161.967 286.471 160.874V135.642C286.471 134.462 286.777 133.545 287.389 132.889C288.044 132.234 288.983 131.906 290.207 131.906H307.247C308.252 131.906 308.973 132.125 309.409 132.562C309.89 132.999 310.13 133.654 310.13 134.528C310.13 135.402 309.89 136.079 309.409 136.559C308.973 136.996 308.252 137.215 307.247 137.215H293.09V160.874C293.09 163.19 291.998 164.348 289.813 164.348Z" fill="#FEEFBB"/>
<path d="M259.258 176.146C258.472 176.146 257.817 175.927 257.292 175.49C256.812 175.097 256.528 174.551 256.44 173.852C256.397 173.196 256.528 172.475 256.833 171.689L261.29 161.662V164.48L249.034 135.971C248.729 135.184 248.619 134.441 248.707 133.742C248.794 133.043 249.122 132.497 249.69 132.104C250.258 131.667 251.022 131.448 251.984 131.448C252.814 131.448 253.469 131.645 253.95 132.038C254.43 132.431 254.867 133.109 255.261 134.07L265.157 158.516H263.322L273.349 134.07C273.742 133.065 274.201 132.388 274.725 132.038C275.25 131.645 275.971 131.448 276.888 131.448C277.675 131.448 278.286 131.667 278.723 132.104C279.204 132.497 279.488 133.043 279.575 133.742C279.706 134.398 279.597 135.119 279.248 135.905L262.863 173.59C262.426 174.595 261.924 175.272 261.356 175.621C260.831 175.971 260.132 176.146 259.258 176.146Z" fill="#FEEFBB"/>
<path d="M238.352 164.348C237.303 164.348 236.495 164.064 235.927 163.496C235.359 162.884 235.075 162.054 235.075 161.005V137.215H223.475V141.082C223.475 144.315 223.3 147.199 222.95 149.733C222.601 152.223 222.055 154.386 221.312 156.221C220.569 158.056 219.608 159.607 218.428 160.874C217.248 162.141 215.807 163.168 214.103 163.955C213.36 164.26 212.683 164.348 212.071 164.217C211.459 164.086 210.935 163.823 210.498 163.43C210.105 162.993 209.843 162.491 209.711 161.923C209.58 161.355 209.646 160.787 209.908 160.219C210.17 159.607 210.651 159.105 211.35 158.711C212.53 158.056 213.491 157.226 214.234 156.221C215.02 155.216 215.632 154.015 216.069 152.616C216.506 151.175 216.811 149.492 216.986 147.57C217.205 145.647 217.314 143.419 217.314 140.885V135.642C217.314 134.462 217.62 133.545 218.231 132.889C218.887 132.234 219.826 131.906 221.05 131.906H237.959C239.138 131.906 240.056 132.234 240.711 132.889C241.367 133.545 241.694 134.462 241.694 135.642V161.005C241.694 162.054 241.388 162.884 240.777 163.496C240.209 164.064 239.4 164.348 238.352 164.348Z" fill="#FEEFBB"/>
<path d="M196.113 164.48C192.836 164.48 189.996 163.803 187.593 162.449C185.233 161.051 183.398 159.106 182.087 156.616C180.777 154.082 180.121 151.111 180.121 147.703C180.121 145.168 180.493 142.896 181.235 140.887C181.978 138.833 183.027 137.107 184.381 135.709C185.779 134.311 187.461 133.24 189.428 132.498C191.437 131.711 193.666 131.318 196.113 131.318C197.642 131.318 199.237 131.558 200.897 132.039C202.601 132.476 204.174 133.219 205.616 134.267C206.184 134.617 206.533 135.054 206.664 135.578C206.839 136.059 206.861 136.561 206.73 137.085C206.642 137.61 206.402 138.068 206.009 138.462C205.659 138.811 205.222 139.03 204.698 139.117C204.174 139.161 203.606 139.008 202.994 138.658C201.945 137.915 200.875 137.391 199.783 137.085C198.69 136.736 197.642 136.561 196.637 136.561C195.064 136.561 193.666 136.823 192.442 137.347C191.263 137.828 190.258 138.549 189.428 139.51C188.597 140.428 187.964 141.586 187.527 142.984C187.134 144.382 186.937 145.977 186.937 147.768C186.937 151.351 187.767 154.169 189.428 156.223C191.132 158.232 193.535 159.237 196.637 159.237C197.642 159.237 198.69 159.084 199.783 158.779C200.875 158.473 201.945 157.948 202.994 157.206C203.606 156.856 204.174 156.725 204.698 156.812C205.222 156.9 205.637 157.14 205.943 157.533C206.293 157.883 206.511 158.32 206.599 158.844C206.73 159.325 206.708 159.827 206.533 160.351C206.358 160.876 205.987 161.313 205.419 161.662C204.021 162.667 202.492 163.388 200.831 163.825C199.215 164.262 197.642 164.48 196.113 164.48Z" fill="#FEEFBB"/>
<path d="M155.551 164.35C154.764 164.35 154.087 164.153 153.519 163.76C152.951 163.367 152.601 162.82 152.47 162.121C152.383 161.422 152.558 160.636 152.995 159.762L158.696 148.686V151.045L140.477 121.815C140.04 120.985 139.843 120.22 139.887 119.521C139.974 118.822 140.302 118.276 140.87 117.883C141.438 117.446 142.137 117.228 142.967 117.228C143.841 117.228 144.518 117.446 144.999 117.883C145.479 118.276 145.96 118.844 146.441 119.587L161.973 144.885H160.663L173.574 119.652C173.967 118.953 174.404 118.385 174.884 117.948C175.365 117.468 176.064 117.228 176.982 117.228C177.768 117.228 178.423 117.424 178.948 117.817C179.516 118.211 179.865 118.757 179.996 119.456C180.171 120.111 179.996 120.898 179.472 121.815L158.959 161.925C158.653 162.58 158.238 163.148 157.713 163.629C157.189 164.109 156.468 164.35 155.551 164.35Z" fill="#FEEFBB"/>
</g>
<defs>
<filter id="filter0_f_170_282" x="52.5858" y="68.8075" width="384.828" height="155.444" filterUnits="userSpaceOnUse" color-interpolation-filters="sRGB">
<feFlood flood-opacity="0" result="BackgroundImageFix"/>
<feBlend mode="normal" in="SourceGraphic" in2="BackgroundImageFix" result="shape"/>
<feGaussianBlur stdDeviation="25.2071" result="effect1_foregroundBlur_170_282"/>
</filter>
<filter id="filter1_d_170_282" x="119.715" y="97.0619" width="242.257" height="99.2493" filterUnits="userSpaceOnUse" color-interpolation-filters="sRGB">
<feFlood flood-opacity="0" result="BackgroundImageFix"/>
<feColorMatrix in="SourceAlpha" type="matrix" values="0 0 0 0 0 0 0 0 0 0 0 0 0 0 0 0 0 0 127 0" result="hardAlpha"/>
<feOffset/>
<feGaussianBlur stdDeviation="10.0828"/>
<feComposite in2="hardAlpha" operator="out"/>
<feColorMatrix type="matrix" values="0 0 0 0 0.988235 0 0 0 0 0.776471 0 0 0 0 0 0 0 0 1 0"/>
<feBlend mode="normal" in2="BackgroundImageFix" result="effect1_dropShadow_170_282"/>
<feBlend mode="normal" in="SourceGraphic" in2="effect1_dropShadow_170_282" result="shape"/>
</filter>
<radialGradient id="paint0_radial_170_282" cx="0" cy="0" r="1" gradientTransform="matrix(-389.822 238.795 -399.35 -131.118 389.822 54.205)" gradientUnits="userSpaceOnUse">
<stop stop-color="#AF6436"/>
<stop offset="1" stop-color="#211515"/>
</radialGradient>
<pattern id="pattern0_170_282" patternUnits="userSpaceOnUse" patternTransform="matrix(32.7903 0 0 30.7312 0 0)" preserveAspectRatio="none" viewBox="0 0 163.952 153.656" width="1" height="1">
<use xlink:href="#pattern0_170_282_inner" transform="translate(0 -153.656)"/>
<g id="pattern0_170_282_inner">
<g opacity="0.15">
<path d="M36.0436 86.336C25.8436 86.336 17.6156 82.732 11.3596 75.524C5.10359 68.316 1.97559 58.864 1.97559 47.168C1.97559 35.472 5.10359 26.02 11.3596 18.812C17.6156 11.604 25.8436 8 36.0436 8C46.2436 8 54.4716 11.604 60.7276 18.812C67.1196 25.884 70.3156 35.336 70.3156 47.168C70.3156 59 67.1196 68.52 60.7276 75.728C54.4716 82.8 46.2436 86.336 36.0436 86.336ZM121.724 9.42799H141.716L44.2036 152.228H24.2116L121.724 9.42799ZM36.0436 72.056C41.6196 72.056 45.9036 69.88 48.8956 65.528C52.0236 61.176 53.5876 55.056 53.5876 47.168C53.5876 39.28 52.0236 33.16 48.8956 28.808C45.9036 24.456 41.6196 22.28 36.0436 22.28C30.7396 22.28 26.4556 24.524 23.1916 29.012C20.0636 33.364 18.4996 39.416 18.4996 47.168C18.4996 54.92 20.0636 61.04 23.1916 65.528C26.4556 69.88 30.7396 72.056 36.0436 72.056ZM129.68 153.656C119.48 153.656 111.252 150.052 104.996 142.844C98.7396 135.636 95.6116 126.184 95.6116 114.488C95.6116 102.792 98.7396 93.34 104.996 86.132C111.252 78.924 119.48 75.32 129.68 75.32C139.88 75.32 148.108 78.924 154.364 86.132C160.756 93.34 163.952 102.792 163.952 114.488C163.952 126.184 160.756 135.636 154.364 142.844C148.108 150.052 139.88 153.656 129.68 153.656ZM129.68 139.376C135.12 139.376 139.404 137.2 142.532 132.848C145.66 128.36 147.224 122.24 147.224 114.488C147.224 106.736 145.66 100.684 142.532 96.332C139.404 91.844 135.12 89.6 129.68 89.6C124.24 89.6 119.956 91.776 116.828 96.128C113.7 100.48 112.136 106.6 112.136 114.488C112.136 122.376 113.7 128.496 116.828 132.848C119.956 137.2 124.24 139.376 129.68 139.376Z" fill="black"/>
<path d="M34.068 78.336C23.868 78.336 15.64 74.732 9.384 67.524C3.128 60.316 0 50.864 0 39.168C0 27.472 3.128 18.02 9.384 10.812C15.64 3.604 23.868 0 34.068 0C44.268 0 52.496 3.604 58.752 10.812C65.144 17.884 68.34 27.336 68.34 39.168C68.34 51 65.144 60.52 58.752 67.728C52.496 74.8 44.268 78.336 34.068 78.336ZM119.748 1.42799H139.74L42.228 144.228H22.236L119.748 1.42799ZM34.068 64.056C39.644 64.056 43.928 61.88 46.92 57.528C50.048 53.176 51.612 47.056 51.612 39.168C51.612 31.28 50.048 25.16 46.92 20.808C43.928 16.456 39.644 14.28 34.068 14.28C28.764 14.28 24.48 16.524 21.216 21.012C18.088 25.364 16.524 31.416 16.524 39.168C16.524 46.92 18.088 53.04 21.216 57.528C24.48 61.88 28.764 64.056 34.068 64.056ZM127.704 145.656C117.504 145.656 109.276 142.052 103.02 134.844C96.764 127.636 93.636 118.184 93.636 106.488C93.636 94.792 96.764 85.34 103.02 78.132C109.276 70.924 117.504 67.32 127.704 67.32C137.904 67.32 146.132 70.924 152.388 78.132C158.78 85.34 161.976 94.792 161.976 106.488C161.976 118.184 158.78 127.636 152.388 134.844C146.132 142.052 137.904 145.656 127.704 145.656ZM127.704 131.376C133.144 131.376 137.428 129.2 140.556 124.848C143.684 120.36 145.248 114.24 145.248 106.488C145.248 98.736 143.684 92.684 140.556 88.332C137.428 83.844 133.144 81.6 127.704 81.6C122.264 81.6 117.98 83.776 114.852 88.128C111.724 92.48 110.16 98.6 110.16 106.488C110.16 114.376 111.724 120.496 114.852 124.848C117.98 129.2 122.264 131.376 127.704 131.376Z" fill="#FCC40A"/>
</g>
</g>
</pattern></defs>
</svg>
